<svg width="86" height="43" viewBox="0 0 86 43" fill="none" xmlns="http://www.w3.org/2000/svg">
<path d="M42.7144 31.4591C38.1407 38.1586 29.4976 42.7143 21.3573 42.7143C9.56156 42.7143 0.000130536 33.1529 0.000131567 21.3571C0.000132598 9.56143 9.56157 4.81157e-06 21.3573 5.84279e-06C29.4976 6.55444e-06 38.1407 4.55565 42.7144 11.2552C47.2881 4.55565 55.9312 8.86534e-06 64.0716 9.57699e-06C75.8673 1.06082e-05 85.4287 9.56144 85.4287 21.3572C85.4287 33.1529 75.8673 42.7143 64.0716 42.7143C55.9312 42.7143 47.2881 38.1586 42.7144 31.4591ZM64.0716 9.85715C56.7198 9.85715 49.2859 15.9883 49.2859 21.3571C49.2859 26.726 56.7198 32.8571 64.0716 32.8572C67.1216 32.8572 70.0466 31.6455 72.2033 29.4889C74.36 27.3322 75.5716 24.4071 75.5716 21.3572C75.5716 18.3072 74.36 15.3821 72.2033 13.2254C70.0466 11.0688 67.1216 9.85715 64.0716 9.85715ZM21.3573 9.85715C18.3073 9.85715 15.3822 11.0688 13.2256 13.2254C11.0689 15.3821 9.85728 18.3072 9.85728 21.3571C9.85728 24.4071 11.0689 27.3322 13.2255 29.4889C15.3822 31.6455 18.3073 32.8571 21.3573 32.8571C28.7091 32.8571 36.143 26.726 36.143 21.3571C36.143 15.9883 28.7091 9.85715 21.3573 9.85715Z" fill="#0A0A0A"/>
</svg>
