<svg width="14" height="14" viewBox="0 0 14 14" fill="none" xmlns="http://www.w3.org/2000/svg">
<g clip-path="url(#clip0_375_246)">
<path d="M0.627829 12.3538C0.659913 12.8561 0.986579 13.2455 1.48562 13.3134C1.89395 13.3691 2.49391 13.4167 3.35433 13.4167C4.21475 13.4167 4.815 13.3691 5.22304 13.3134C5.72179 13.2455 6.04904 12.8561 6.08083 12.3538C6.10533 11.972 6.12516 11.4225 6.12516 10.6458C6.12516 9.86912 6.10533 9.31962 6.08083 8.93783C6.04875 8.43558 5.72208 8.04621 5.22304 7.97825C4.8147 7.92254 4.21475 7.875 3.35433 7.875C2.49391 7.875 1.89395 7.92254 1.48562 7.97825C0.986871 8.04621 0.659621 8.43558 0.627829 8.93783C0.603329 9.31962 0.583496 9.86912 0.583496 10.6458C0.583496 11.4225 0.603329 11.972 0.627829 12.3538ZM0.627829 1.64617C0.659913 1.14392 0.986579 0.75454 1.48562 0.686582C1.89395 0.630874 2.49391 0.583332 3.35433 0.583332C4.21475 0.583332 4.815 0.630874 5.22304 0.686582C5.72179 0.75454 6.04904 1.14392 6.08083 1.64617C6.10533 2.02796 6.12516 2.57746 6.12516 3.35417C6.12516 4.13087 6.10533 4.68037 6.08083 5.06217C6.04875 5.56442 5.72208 5.95379 5.22304 6.02175C4.8147 6.07746 4.21475 6.125 3.35433 6.125C2.49391 6.125 1.89395 6.07746 1.48562 6.02175C0.986871 5.95379 0.659621 5.56442 0.627829 5.06217C0.603329 4.68037 0.583496 4.13087 0.583496 3.35417C0.583496 2.57746 0.603329 2.02796 0.627829 1.64617ZM12.354 13.3723C12.8562 13.3402 13.2456 13.0136 13.3136 12.5145C13.3693 12.1062 13.4168 11.5062 13.4168 10.6458C13.4168 9.78542 13.3693 9.18517 13.3136 8.77712C13.2456 8.27837 12.8562 7.95112 12.354 7.91933C11.9722 7.89483 11.4227 7.875 10.646 7.875C9.86929 7.875 9.31979 7.89483 8.938 7.91933C8.43575 7.95142 8.04637 8.27808 7.97841 8.77712C7.9227 9.18546 7.87516 9.78542 7.87516 10.6458C7.87516 11.5062 7.9227 12.1065 7.97841 12.5145C8.04637 13.0133 8.43575 13.3405 8.938 13.3723C9.31979 13.3968 9.86929 13.4167 10.646 13.4167C11.4227 13.4167 11.9722 13.3968 12.354 13.3723Z" stroke="white" stroke-width="1.125" stroke-linejoin="round"/>
<path d="M10.3903 0.759499C10.4154 0.713627 10.4524 0.675357 10.4974 0.648699C10.5424 0.622041 10.5938 0.607975 10.6461 0.607975C10.6984 0.607975 10.7497 0.622041 10.7947 0.648699C10.8397 0.675357 10.8768 0.713627 10.9019 0.759499L11.4829 1.82175C11.6435 2.11537 11.8849 2.35678 12.1785 2.51737L13.2408 3.09837C13.2866 3.12351 13.3249 3.16051 13.3516 3.20551C13.3782 3.25052 13.3923 3.30186 13.3923 3.35417C13.3923 3.40647 13.3782 3.45781 13.3516 3.50282C13.3249 3.54782 13.2866 3.58482 13.2408 3.60996L12.1785 4.19096C11.8849 4.35155 11.6435 4.59296 11.4829 4.88658L10.9019 5.94883C10.8768 5.9947 10.8397 6.03297 10.7947 6.05963C10.7497 6.08629 10.6984 6.10036 10.6461 6.10036C10.5938 6.10036 10.5424 6.08629 10.4974 6.05963C10.4524 6.03297 10.4154 5.9947 10.3903 5.94883L9.8093 4.88658C9.64871 4.59296 9.4073 4.35155 9.11368 4.19096L8.05143 3.60996C8.00555 3.58482 7.96728 3.54782 7.94063 3.50282C7.91397 3.45781 7.8999 3.40647 7.8999 3.35417C7.8999 3.30186 7.91397 3.25052 7.94063 3.20551C7.96728 3.16051 8.00555 3.12351 8.05143 3.09837L9.11368 2.51737C9.4073 2.35678 9.64871 2.11537 9.8093 1.82175L10.3903 0.759499Z" stroke="white" stroke-width="1.125"/>
</g>
<defs>
<clipPath id="clip0_375_246">
<rect width="14" height="14" fill="white"/>
</clipPath>
</defs>
</svg>
