<svg width="17" height="17" viewBox="0 0 17 17" fill="none" xmlns="http://www.w3.org/2000/svg">
<path d="M1.78231 16.0408H14.2585C15.2388 16.0408 16.0408 15.2388 16.0408 14.2585V8.02041H14.2585V14.2585H1.78231V1.78231H8.02041V0H1.78231C0.802041 0 0 0.802041 0 1.78231V14.2585C0 15.2388 0.802041 16.0408 1.78231 16.0408Z" fill="white"/>
<path d="M3.56459 8.91154V11.585C3.56459 12.0752 3.96561 12.4762 4.45575 12.4762H7.12922C7.36983 12.4762 7.59262 12.3781 7.76194 12.2177L15.7823 4.19733C15.865 4.11488 15.9305 4.01696 15.9752 3.90915C16.0199 3.80134 16.043 3.68578 16.043 3.56906C16.043 3.45235 16.0199 3.33678 15.9752 3.22898C15.9305 3.12117 15.865 3.02324 15.7823 2.9408L13.1089 0.267327C13.0264 0.184714 12.9285 0.119171 12.8207 0.0744519C12.7129 0.0297324 12.5973 0.00671387 12.4806 0.00671387C12.3639 0.00671387 12.2483 0.0297324 12.1405 0.0744519C12.0327 0.119171 11.9348 0.184714 11.8523 0.267327L3.82303 8.27882C3.74043 8.36209 3.67509 8.46085 3.63074 8.56942C3.58639 8.678 3.56391 8.79426 3.56459 8.91154ZM12.4762 2.14767L13.8931 3.56461L12.9217 4.53597L11.5048 3.11903L12.4762 2.14767ZM5.3469 9.27692L10.2483 4.37556L11.6652 5.7925L6.76384 10.6939H5.3469V9.27692Z" fill="white"/>
</svg>
