<svg width="18" height="18" viewBox="0 0 18 18" fill="none" xmlns="http://www.w3.org/2000/svg">
<path d="M15.3228 7.85554C15.539 8.15852 15.6471 8.31072 15.6471 8.53476C15.6471 8.75951 15.539 8.911 15.3228 9.21399C14.3512 10.5767 11.8697 13.5134 8.53479 13.5134C5.19912 13.5134 2.71835 10.576 1.74681 9.21399C1.53059 8.911 1.42249 8.7588 1.42249 8.53476C1.42249 8.31001 1.53059 8.15852 1.74681 7.85554C2.71835 6.49282 5.19983 3.55615 8.53479 3.55615C11.8705 3.55615 14.3512 6.49353 15.3228 7.85554Z" stroke="white" stroke-width="1.06684"/>
<path d="M10.6685 8.53481C10.6685 7.96892 10.4437 7.42621 10.0436 7.02607C9.64342 6.62592 9.1007 6.40112 8.53481 6.40112C7.96892 6.40112 7.42621 6.62592 7.02607 7.02607C6.62592 7.42621 6.40112 7.96892 6.40112 8.53481C6.40112 9.1007 6.62592 9.64342 7.02607 10.0436C7.42621 10.4437 7.96892 10.6685 8.53481 10.6685C9.1007 10.6685 9.64342 10.4437 10.0436 10.0436C10.4437 9.64342 10.6685 9.1007 10.6685 8.53481Z" stroke="white" stroke-width="1.06684"/>
</svg>
