<svg width="14" height="14" viewBox="0 0 14 14" fill="none" xmlns="http://www.w3.org/2000/svg">
<path d="M8.16658 6.41667C7.70246 6.41667 7.25734 6.23229 6.92915 5.9041C6.60096 5.57591 6.41658 5.1308 6.41658 4.66667V2.33333H4.08325C3.77383 2.33333 3.47709 2.45625 3.25829 2.67504C3.0395 2.89383 2.91659 3.19058 2.91659 3.5V11.0833C2.91659 11.3928 3.0395 11.6895 3.25829 11.9083C3.47709 12.1271 3.77383 12.25 4.08325 12.25H9.33325C9.64267 12.25 9.93942 12.1271 10.1582 11.9083C10.377 11.6895 10.4999 11.3928 10.4999 11.0833V6.41667H8.16658ZM6.99992 4.66667C6.99992 4.97609 7.12284 5.27283 7.34163 5.49162C7.56042 5.71042 7.85717 5.83333 8.16658 5.83333H10.2608L6.99992 2.5725V4.66667ZM4.08325 1.75H6.99992L11.0833 5.83333V11.0833C11.0833 11.5475 10.8989 11.9926 10.5707 12.3208C10.2425 12.649 9.79738 12.8333 9.33325 12.8333H4.08325C3.61912 12.8333 3.174 12.649 2.84582 12.3208C2.51763 11.9926 2.33325 11.5475 2.33325 11.0833V3.5C2.33325 3.03587 2.51763 2.59075 2.84582 2.26256C3.174 1.93437 3.61912 1.75 4.08325 1.75Z" fill="#676B6D"/>
</svg>
