<svg width="18" height="16" viewBox="0 0 18 16" fill="none" xmlns="http://www.w3.org/2000/svg">
<path d="M6.517 9.99988L9 8.58886L11.483 9.99988L10.823 7.35305L13.019 5.58787L10.133 5.34801L9 2.86514L7.867 5.34801L4.981 5.58787L7.177 7.35305L6.517 9.99988ZM0 16V1.51408C0 1.08247 0.154333 0.722375 0.463 0.4338C0.771667 0.145225 1.15567 0.000624622 1.615 0H16.385C16.845 0 17.229 0.1446 17.537 0.4338C17.845 0.723 17.9993 1.08309 18 1.51408V11.6039C18 12.0349 17.8457 12.395 17.537 12.6842C17.2283 12.9734 16.8443 13.1177 16.385 13.1171H3.077L0 16ZM2.65 12.1801H16.385C16.5383 12.1801 16.6793 12.1202 16.808 12.0002C16.9367 11.8803 17.0007 11.7482 17 11.6039V1.51315C17 1.36948 16.936 1.23738 16.808 1.11682C16.68 0.996272 16.539 0.936308 16.385 0.936933H1.615C1.46167 0.936933 1.32067 0.996896 1.192 1.11682C1.06333 1.23675 0.999333 1.36886 1 1.51315V13.7214L2.65 12.1801Z" fill="#4F5356"/>
</svg>
