<svg width="18" height="17" viewBox="0 0 18 17" fill="none" xmlns="http://www.w3.org/2000/svg">
<path d="M10 4.72222V0.944444C10 0.676852 10.096 0.452704 10.288 0.272C10.48 0.0912964 10.7173 0.000629629 11 0H17C17.2833 0 17.521 0.0906667 17.713 0.272C17.905 0.453333 18.0007 0.677481 18 0.944444V4.72222C18 4.98981 17.904 5.21428 17.712 5.39561C17.52 5.57694 17.2827 5.66729 17 5.66667H11C10.7167 5.66667 10.4793 5.576 10.288 5.39467C10.0967 5.21333 10.0007 4.98918 10 4.72222ZM0 8.5V0.944444C0 0.676852 0.0960001 0.452704 0.288 0.272C0.48 0.0912964 0.717333 0.000629629 1 0H7C7.28333 0 7.521 0.0906667 7.713 0.272C7.905 0.453333 8.00066 0.677481 8 0.944444V8.5C8 8.76759 7.904 8.99205 7.712 9.17339C7.52 9.35472 7.28266 9.44507 7 9.44444H1C0.716667 9.44444 0.479333 9.35378 0.288 9.17244C0.0966667 8.99111 0.000666666 8.76696 0 8.5ZM10 16.0556V8.5C10 8.23241 10.096 8.00826 10.288 7.82755C10.48 7.64685 10.7173 7.55618 11 7.55555H17C17.2833 7.55555 17.521 7.64622 17.713 7.82755C17.905 8.00889 18.0007 8.23304 18 8.5V16.0556C18 16.3231 17.904 16.5476 17.712 16.7289C17.52 16.9103 17.2827 17.0006 17 17H11C10.7167 17 10.4793 16.9093 10.288 16.728C10.0967 16.5467 10.0007 16.3225 10 16.0556ZM0 16.0556V12.2778C0 12.0102 0.0960001 11.786 0.288 11.6053C0.48 11.4246 0.717333 11.334 1 11.3333H7C7.28333 11.3333 7.521 11.424 7.713 11.6053C7.905 11.7867 8.00066 12.0108 8 12.2778V16.0556C8 16.3231 7.904 16.5476 7.712 16.7289C7.52 16.9103 7.28266 17.0006 7 17H1C0.716667 17 0.479333 16.9093 0.288 16.728C0.0966667 16.5467 0.000666666 16.3225 0 16.0556ZM2 7.55555H6V1.88889H2V7.55555ZM12 15.1111H16V9.44444H12V15.1111ZM12 3.77778H16V1.88889H12V3.77778ZM2 15.1111H6V13.2222H2V15.1111Z" fill="black"/>
</svg>
