<svg width="60" height="58" viewBox="0 0 60 58" fill="none" xmlns="http://www.w3.org/2000/svg">
<g filter="url(#filter0_d_1155_341)">
<rect x="18" y="18" width="24" height="22" rx="2" fill="#FCF5F5"/>
<rect x="18.25" y="18.25" width="23.5" height="21.5" rx="1.75" stroke="url(#paint0_linear_1155_341)" stroke-width="0.5"/>
</g>
<path d="M37.8535 30.6465L36.3535 29.1465C36.2597 29.0528 36.1326 29.0001 36 29.0001C35.8674 29.0001 35.7403 29.0528 35.6465 29.1465L31 33.793V36H33.207L37.8535 31.3535C37.9472 31.2597 37.9999 31.1326 37.9999 31C37.9999 30.8674 37.9472 30.7403 37.8535 30.6465ZM32.793 35H32V34.207L34.5 31.707L35.293 32.5L32.793 35ZM36 31.793L35.207 31L36 30.207L36.793 31L36 31.793ZM31.5 28.5H28.5C28.1022 28.5 27.7206 28.658 27.4393 28.9393C27.158 29.2206 27 29.6022 27 30V30.5H28V30C28 29.8674 28.0527 29.7402 28.1464 29.6464C28.2402 29.5527 28.3674 29.5 28.5 29.5H31.5C31.6326 29.5 31.7598 29.5527 31.8536 29.6464C31.9473 29.7402 32 29.8674 32 30V30.5H33V30C33 29.6022 32.842 29.2206 32.5607 28.9393C32.2794 28.658 31.8978 28.5 31.5 28.5ZM30 28C30.3956 28 30.7822 27.8827 31.1111 27.6629C31.44 27.4432 31.6964 27.1308 31.8478 26.7654C31.9991 26.3999 32.0387 25.9978 31.9616 25.6098C31.8844 25.2219 31.6939 24.8655 31.4142 24.5858C31.1345 24.3061 30.7781 24.1156 30.3902 24.0384C30.0022 23.9613 29.6001 24.0009 29.2346 24.1522C28.8692 24.3036 28.5568 24.56 28.3371 24.8889C28.1173 25.2178 28 25.6044 28 26C28 26.5304 28.2107 27.0391 28.5858 27.4142C28.9609 27.7893 29.4696 28 30 28ZM30 25C30.1978 25 30.3911 25.0586 30.5556 25.1685C30.72 25.2784 30.8482 25.4346 30.9239 25.6173C30.9996 25.8 31.0194 26.0011 30.9808 26.1951C30.9422 26.3891 30.847 26.5673 30.7071 26.7071C30.5673 26.847 30.3891 26.9422 30.1951 26.9808C30.0011 27.0194 29.8 26.9996 29.6173 26.9239C29.4346 26.8482 29.2784 26.72 29.1685 26.5556C29.0586 26.3911 29 26.1978 29 26C29 25.7348 29.1054 25.4804 29.2929 25.2929C29.4804 25.1054 29.7348 25 30 25Z" fill="#676B6D"/>
<path d="M29 36H26C25.7348 36 25.4804 35.8946 25.2929 35.7071C25.1054 35.5196 25 35.2652 25 35V23C25 22.7348 25.1054 22.4804 25.2929 22.2929C25.4804 22.1054 25.7348 22 26 22H34C34.2652 22 34.5196 22.1054 34.7071 22.2929C34.8946 22.4804 35 22.7348 35 23V28H34V23H26V35H29V36Z" fill="#676B6D"/>
<defs>
<filter id="filter0_d_1155_341" x="0" y="0" width="60" height="58" filterUnits="userSpaceOnUse" color-interpolation-filters="sRGB">
<feFlood flood-opacity="0" result="BackgroundImageFix"/>
<feColorMatrix in="SourceAlpha" type="matrix" values="0 0 0 0 0 0 0 0 0 0 0 0 0 0 0 0 0 0 127 0" result="hardAlpha"/>
<feOffset/>
<feGaussianBlur stdDeviation="9"/>
<feComposite in2="hardAlpha" operator="out"/>
<feColorMatrix type="matrix" values="0 0 0 0 0.756133 0 0 0 0 0.756133 0 0 0 0 0.756133 0 0 0 0.25 0"/>
<feBlend mode="normal" in2="BackgroundImageFix" result="effect1_dropShadow_1155_341"/>
<feBlend mode="normal" in="SourceGraphic" in2="effect1_dropShadow_1155_341" result="shape"/>
</filter>
<linearGradient id="paint0_linear_1155_341" x1="30" y1="18" x2="30" y2="40" gradientUnits="userSpaceOnUse">
<stop stop-color="#DF4833"/>
<stop offset="1" stop-color="#79271C"/>
</linearGradient>
</defs>
</svg>
