<svg width="17" height="18" viewBox="0 0 17 18" fill="none" xmlns="http://www.w3.org/2000/svg">
<path d="M4.48023 5.17327H7.44841M4.48023 8.93773H12.3948M4.48023 12.7022H12.3948M15.9375 5.96975V13.3793C15.9195 13.864 15.8008 14.3404 15.5882 14.7813C15.3757 15.2221 15.0736 15.6185 14.6993 15.9478C14.3247 16.2785 13.8852 16.5358 13.4061 16.705C12.9269 16.8741 12.4173 16.9518 11.9066 16.9336H5.00659C4.49272 16.956 3.97926 16.8816 3.49566 16.7148C3.01206 16.548 2.56782 16.292 2.18841 15.9616C1.81047 15.6315 1.50527 15.2332 1.29052 14.7899C1.07578 14.3466 0.955783 13.8671 0.9375 13.3793V4.49441C0.955549 4.00975 1.07425 3.53329 1.28675 3.09247C1.49926 2.65166 1.80137 2.2552 2.17568 1.92597C2.5503 1.5952 2.98976 1.33789 3.46894 1.16873C3.94813 0.999572 4.45765 0.921882 4.96841 0.940099H10.163C10.9559 0.937434 11.7214 1.21654 12.3093 1.72274L15.0002 4.07671C15.2874 4.312 15.5192 4.60216 15.6807 4.92832C15.8422 5.25447 15.9297 5.60931 15.9375 5.96975Z" stroke="#4F5356" stroke-width="1.875" stroke-linecap="round" stroke-linejoin="round"/>
</svg>
