<svg width="60" height="58" viewBox="0 0 60 58" fill="none" xmlns="http://www.w3.org/2000/svg">
<g filter="url(#filter0_d_1152_337)">
<rect x="18" y="18" width="24" height="22" rx="2" fill="#FCF5F5"/>
<rect x="18.25" y="18.25" width="23.5" height="21.5" rx="1.75" stroke="url(#paint0_linear_1152_337)" stroke-width="0.5"/>
</g>
<path d="M31.9613 34.3333L32.628 35H26.0773C25.7702 35 25.514 34.8973 25.3087 34.692C25.1033 34.4867 25.0004 34.2304 25 33.9233V24.0767C25 23.77 25.1029 23.514 25.3087 23.3087C25.5144 23.1033 25.7707 23.0004 26.0773 23H31.3593L34.3333 26.564V33.9233C34.3333 34.0256 34.3053 34.1278 34.2493 34.23C34.1933 34.3322 34.1204 34.4231 34.0307 34.5027L30.8207 31.3C30.6318 31.4307 30.4451 31.5244 30.2607 31.5813C30.0767 31.6382 29.8787 31.6667 29.6667 31.6667C29.1169 31.6667 28.646 31.4709 28.254 31.0793C27.862 30.6878 27.6662 30.2169 27.6667 29.6667C27.6671 29.1164 27.862 28.6456 28.2513 28.254C28.6407 27.8624 29.1124 27.6667 29.6667 27.6667C30.2209 27.6667 30.6927 27.8624 31.082 28.254C31.4713 28.6456 31.6662 29.1164 31.6667 29.6667C31.6667 29.8964 31.6362 30.1031 31.5753 30.2867C31.5144 30.4702 31.4227 30.648 31.3 30.82L33.6667 33.22V26.8L31.0333 23.6667H26.0773C25.9747 23.6667 25.8804 23.7093 25.7947 23.7947C25.7089 23.88 25.6662 23.974 25.6667 24.0767V33.9233C25.6667 34.0256 25.7093 34.1196 25.7947 34.2053C25.88 34.2911 25.974 34.3338 26.0767 34.3333H31.9613ZM30.608 30.6087C30.8693 30.3473 31 30.0333 31 29.6667C31 29.3 30.8696 28.9862 30.6087 28.7253C30.3478 28.4644 30.0338 28.3338 29.6667 28.3333C29.2996 28.3329 28.9858 28.4636 28.7253 28.7253C28.4649 28.9871 28.3342 29.3009 28.3333 29.6667C28.3324 30.0324 28.4631 30.3464 28.7253 30.6087C28.9876 30.8709 29.3013 31.0013 29.6667 31C30.032 30.9987 30.346 30.8682 30.6087 30.6087" fill="#676B6D"/>
<defs>
<filter id="filter0_d_1152_337" x="0" y="0" width="60" height="58" filterUnits="userSpaceOnUse" color-interpolation-filters="sRGB">
<feFlood flood-opacity="0" result="BackgroundImageFix"/>
<feColorMatrix in="SourceAlpha" type="matrix" values="0 0 0 0 0 0 0 0 0 0 0 0 0 0 0 0 0 0 127 0" result="hardAlpha"/>
<feOffset/>
<feGaussianBlur stdDeviation="9"/>
<feComposite in2="hardAlpha" operator="out"/>
<feColorMatrix type="matrix" values="0 0 0 0 0.756133 0 0 0 0 0.756133 0 0 0 0 0.756133 0 0 0 0.25 0"/>
<feBlend mode="normal" in2="BackgroundImageFix" result="effect1_dropShadow_1152_337"/>
<feBlend mode="normal" in="SourceGraphic" in2="effect1_dropShadow_1152_337" result="shape"/>
</filter>
<linearGradient id="paint0_linear_1152_337" x1="30" y1="18" x2="30" y2="40" gradientUnits="userSpaceOnUse">
<stop stop-color="#DF4833"/>
<stop offset="1" stop-color="#79271C"/>
</linearGradient>
</defs>
</svg>
