<svg width="60" height="58" viewBox="0 0 60 58" fill="none" xmlns="http://www.w3.org/2000/svg">
<g filter="url(#filter0_d_1155_339)">
<rect x="18" y="18" width="24" height="22" rx="2" fill="#FCF5F5"/>
<rect x="18.25" y="18.25" width="23.5" height="21.5" rx="1.75" stroke="url(#paint0_linear_1155_339)" stroke-width="0.5"/>
</g>
<g clip-path="url(#clip0_1155_339)">
<path d="M32.5 21.0156L38 23.7656V29.8984L37 29.3984V24.8828L33 26.8828V28.8984L32 29.3984V26.8828L28 24.8828V26.6562L27 26.1562V23.7656L32.5 21.0156ZM32.5 26.0156L33.8828 25.3203L30.2656 23.25L28.6172 24.0781L32.5 26.0156ZM34.9609 24.7891L36.3828 24.0781L32.5 22.1328L31.3359 22.7188L34.9609 24.7891ZM31 29.8984L30 30.3984V30.3906L27 31.8906V35.4453L30 33.9375V35.0625L26.5 36.8125L22 34.5547V29.2734L26.5 27.0234L31 29.2734V29.8984ZM26 35.4453V31.8906L23 30.3906V33.9375L26 35.4453ZM26.5 31.0234L29.3828 29.5859L26.5 28.1406L23.6172 29.5859L26.5 31.0234ZM31 31.0156L34.5 29.2656L38 31.0156V35.1328L34.5 36.8828L31 35.1328V31.0156ZM34 35.5156V33.1328L32 32.1328V34.5156L34 35.5156ZM37 34.5156V32.1328L35 33.1328V35.5156L37 34.5156ZM34.5 32.2656L36.3828 31.3203L34.5 30.3828L32.6172 31.3203L34.5 32.2656Z" fill="#676B6D"/>
</g>
<defs>
<filter id="filter0_d_1155_339" x="0" y="0" width="60" height="58" filterUnits="userSpaceOnUse" color-interpolation-filters="sRGB">
<feFlood flood-opacity="0" result="BackgroundImageFix"/>
<feColorMatrix in="SourceAlpha" type="matrix" values="0 0 0 0 0 0 0 0 0 0 0 0 0 0 0 0 0 0 127 0" result="hardAlpha"/>
<feOffset/>
<feGaussianBlur stdDeviation="9"/>
<feComposite in2="hardAlpha" operator="out"/>
<feColorMatrix type="matrix" values="0 0 0 0 0.756133 0 0 0 0 0.756133 0 0 0 0 0.756133 0 0 0 0.25 0"/>
<feBlend mode="normal" in2="BackgroundImageFix" result="effect1_dropShadow_1155_339"/>
<feBlend mode="normal" in="SourceGraphic" in2="effect1_dropShadow_1155_339" result="shape"/>
</filter>
<linearGradient id="paint0_linear_1155_339" x1="30" y1="18" x2="30" y2="40" gradientUnits="userSpaceOnUse">
<stop stop-color="#DF4833"/>
<stop offset="1" stop-color="#79271C"/>
</linearGradient>
<clipPath id="clip0_1155_339">
<rect width="16" height="16" fill="white" transform="translate(22 21)"/>
</clipPath>
</defs>
</svg>
