<svg width="60" height="58" viewBox="0 0 60 58" fill="none" xmlns="http://www.w3.org/2000/svg">
<g filter="url(#filter0_d_1155_340)">
<rect x="18" y="18" width="24" height="22" rx="2" fill="#FCF5F5"/>
<rect x="18.25" y="18.25" width="23.5" height="21.5" rx="1.75" stroke="url(#paint0_linear_1155_340)" stroke-width="0.5"/>
</g>
<path d="M37.8535 30.6465L36.3535 29.1465C36.2597 29.0528 36.1326 29.0001 36 29.0001C35.8674 29.0001 35.7403 29.0528 35.6465 29.1465L31 33.793V36H33.207L37.8535 31.3535C37.9472 31.2597 37.9999 31.1326 37.9999 31C37.9999 30.8674 37.9472 30.7403 37.8535 30.6465ZM32.793 35H32V34.207L34.5 31.707L35.293 32.5L32.793 35ZM36 31.793L35.207 31L36 30.207L36.793 31L36 31.793ZM27 29H32V30H27V29ZM27 26H33V27H27V26Z" fill="#676B6D"/>
<path d="M35 23C35 22.7348 34.8946 22.4804 34.7071 22.2929C34.5196 22.1054 34.2652 22 34 22H24C23.7348 22 23.4804 22.1054 23.2929 22.2929C23.1054 22.4804 23 22.7348 23 23V29.5C22.9988 30.4972 23.2693 31.4759 23.7823 32.3309C24.2954 33.186 25.0316 33.8852 25.912 34.3535L28.5 35.7335V34.6L26.383 33.471C25.6628 33.0877 25.0605 32.5156 24.6407 31.816C24.2209 31.1165 23.9994 30.3158 24 29.5V23H34V27.5H35V23Z" fill="#676B6D"/>
<defs>
<filter id="filter0_d_1155_340" x="0" y="0" width="60" height="58" filterUnits="userSpaceOnUse" color-interpolation-filters="sRGB">
<feFlood flood-opacity="0" result="BackgroundImageFix"/>
<feColorMatrix in="SourceAlpha" type="matrix" values="0 0 0 0 0 0 0 0 0 0 0 0 0 0 0 0 0 0 127 0" result="hardAlpha"/>
<feOffset/>
<feGaussianBlur stdDeviation="9"/>
<feComposite in2="hardAlpha" operator="out"/>
<feColorMatrix type="matrix" values="0 0 0 0 0.756133 0 0 0 0 0.756133 0 0 0 0 0.756133 0 0 0 0.25 0"/>
<feBlend mode="normal" in2="BackgroundImageFix" result="effect1_dropShadow_1155_340"/>
<feBlend mode="normal" in="SourceGraphic" in2="effect1_dropShadow_1155_340" result="shape"/>
</filter>
<linearGradient id="paint0_linear_1155_340" x1="30" y1="18" x2="30" y2="40" gradientUnits="userSpaceOnUse">
<stop stop-color="#DF4833"/>
<stop offset="1" stop-color="#79271C"/>
</linearGradient>
</defs>
</svg>
