<svg width="19" height="19" viewBox="0 0 19 19" fill="none" xmlns="http://www.w3.org/2000/svg">
<path d="M9.16667 18.3333C8.94565 18.3333 8.73369 18.2455 8.57741 18.0893C8.42113 17.933 8.33333 17.721 8.33333 17.5V15H5C4.55797 15 4.13405 14.8244 3.82149 14.5118C3.50893 14.1993 3.33333 13.7754 3.33333 13.3333V5C3.33333 4.55797 3.50893 4.13405 3.82149 3.82149C4.13405 3.50893 4.55797 3.33333 5 3.33333H16.6667C17.1087 3.33333 17.5326 3.50893 17.8452 3.82149C18.1577 4.13405 18.3333 4.55797 18.3333 5V13.3333C18.3333 13.7754 18.1577 14.1993 17.8452 14.5118C17.5326 14.8244 17.1087 15 16.6667 15H13.25L10.1667 18.0917C10 18.2417 9.8 18.3333 9.58333 18.3333H9.16667ZM10 13.3333V15.9L12.5667 13.3333H16.6667V5H5V13.3333H10ZM1.66667 11.6667H0V1.66667C0 1.22464 0.175595 0.800716 0.488155 0.488155C0.800716 0.175595 1.22464 0 1.66667 0H15V1.66667H1.66667V11.6667ZM6.66667 6.66667H15V8.33333H6.66667V6.66667ZM6.66667 10H13.3333V11.6667H6.66667V10Z" fill="white"/>
</svg>
