<svg width="26" height="26" viewBox="0 0 26 26" fill="none" xmlns="http://www.w3.org/2000/svg">
<path d="M12.8333 25.6667C12.5239 25.6667 12.2272 25.5438 12.0084 25.325C11.7896 25.1062 11.6667 24.8094 11.6667 24.5V21H7C6.38116 21 5.78767 20.7542 5.35008 20.3166C4.9125 19.879 4.66667 19.2855 4.66667 18.6667V7C4.66667 6.38116 4.9125 5.78767 5.35008 5.35008C5.78767 4.9125 6.38116 4.66667 7 4.66667H23.3333C23.9522 4.66667 24.5457 4.9125 24.9832 5.35008C25.4208 5.78767 25.6667 6.38116 25.6667 7V18.6667C25.6667 19.2855 25.4208 19.879 24.9832 20.3166C24.5457 20.7542 23.9522 21 23.3333 21H18.55L14.2333 25.3283C14 25.5383 13.72 25.6667 13.4167 25.6667H12.8333ZM14 18.6667V22.26L17.5933 18.6667H23.3333V7H7V18.6667H14ZM2.33333 16.3333H0V2.33333C0 1.71449 0.245833 1.121 0.683417 0.683417C1.121 0.245833 1.71449 0 2.33333 0H21V2.33333H2.33333V16.3333ZM9.33333 9.33333H21V11.6667H9.33333V9.33333ZM9.33333 14H18.6667V16.3333H9.33333V14Z" fill="url(#paint0_linear_1260_335)"/>
<defs>
<linearGradient id="paint0_linear_1260_335" x1="12.8333" y1="0" x2="12.8333" y2="25.6667" gradientUnits="userSpaceOnUse">
<stop stop-color="#DF4833"/>
<stop offset="1" stop-color="#79271C"/>
</linearGradient>
</defs>
</svg>
