<svg width="10" height="10" viewBox="0 0 10 10" fill="none" xmlns="http://www.w3.org/2000/svg">
<path d="M3.69844 7.39687C2.66477 7.39687 1.79004 7.03879 1.07425 6.32262C0.358464 5.60645 0.000379628 4.73172 3.01053e-07 3.69843C-0.000379026 2.66515 0.357705 1.79042 1.07425 1.07425C1.7908 0.358084 2.66553 0 3.69844 0C4.73134 0 5.60626 0.358084 6.32319 1.07425C7.04011 1.79042 7.39801 2.66515 7.39687 3.69843C7.39687 4.11569 7.33049 4.50925 7.19772 4.87909C7.06496 5.24893 6.88478 5.5761 6.65718 5.8606L9.84353 9.04694C9.94784 9.15126 10 9.28402 10 9.44523C10 9.60645 9.94784 9.73921 9.84353 9.84353C9.73921 9.94784 9.60645 10 9.44523 10C9.28402 10 9.15126 9.94784 9.04694 9.84353L5.8606 6.65718C5.5761 6.88478 5.24893 7.06496 4.87909 7.19772C4.50925 7.33049 4.11569 7.39687 3.69844 7.39687ZM3.69844 6.25889C4.40967 6.25889 5.01432 6.01005 5.51238 5.51237C6.01043 5.0147 6.25927 4.41005 6.25889 3.69843C6.25851 2.98682 6.00967 2.38236 5.51238 1.88506C5.01508 1.38777 4.41043 1.13874 3.69844 1.13798C2.98644 1.13722 2.38198 1.38625 1.88506 1.88506C1.38815 2.38388 1.13912 2.98834 1.13798 3.69843C1.13684 4.40853 1.38587 5.01318 1.88506 5.51237C2.38426 6.01157 2.98872 6.26041 3.69844 6.25889Z" fill="#787878"/>
</svg>
