<svg width="16" height="16" viewBox="0 0 16 16" fill="none" xmlns="http://www.w3.org/2000/svg">
<path d="M15.75 1.125V3.375C15.75 3.99375 15.2437 4.5 14.625 4.5H12.375C11.7563 4.5 11.25 3.99375 11.25 3.375V2.8125H10.125L6.6375 10.0125C6.525 10.4062 6.075 10.6875 5.625 10.6875H4.5V11.25C4.5 11.8687 3.99375 12.375 3.375 12.375H1.125C0.50625 12.375 0 11.8687 0 11.25V9C0 8.38125 0.50625 7.875 1.125 7.875H3.375C3.99375 7.875 4.5 8.38125 4.5 9V9.5625H5.625L8.8875 2.8125H4.5V3.375C4.5 3.99375 3.99375 4.5 3.375 4.5H1.125C0.50625 4.5 0 3.99375 0 3.375V1.125C0 0.50625 0.50625 0 1.125 0H3.375C3.99375 0 4.5 0.50625 4.5 1.125V1.6875H11.25V1.125C11.25 0.50625 11.7563 0 12.375 0H14.625C15.2437 0 15.75 0.50625 15.75 1.125ZM3.375 1.125H1.125V3.375H3.375V1.125ZM3.375 9H1.125V11.25H3.375V9ZM14.625 1.125H12.375V3.375H14.625V1.125ZM11.25 11.25C10.6296 11.25 10.125 11.7551 10.125 12.375C10.125 12.9949 10.6296 13.5 11.25 13.5C11.8704 13.5 12.375 12.9954 12.375 12.375C12.375 11.7546 11.8704 11.25 11.25 11.25ZM15.6246 12.0819C14.8241 10.2088 13.1062 9 11.25 9C9.39375 9 7.67587 10.2094 6.87544 12.0819L6.75 12.375L6.87544 12.6686C7.67587 14.5406 9.39375 15.75 11.25 15.75C13.1062 15.75 14.8241 14.5406 15.6246 12.6686L15.75 12.375L15.6246 12.0819ZM11.25 14.625C10.0091 14.625 9 13.6159 9 12.375C9 11.1341 10.0091 10.125 11.25 10.125C12.4909 10.125 13.5 11.1341 13.5 12.375C13.5 13.6159 12.4909 14.625 11.25 14.625Z" fill="white"/>
</svg>
