<svg width="24" height="24" viewBox="0 0 24 24" fill="none" xmlns="http://www.w3.org/2000/svg">
<path d="M18 12.52L19 13.52V19.385C19 19.845 18.846 20.229 18.538 20.537C18.23 20.845 17.8453 20.9993 17.384 21H4.616C4.15533 21 3.771 20.846 3.463 20.538C3.155 20.23 3.00067 19.8456 3 19.385V6.61498C3 6.15498 3.15433 5.77098 3.463 5.46298C3.77167 5.15498 4.15567 5.00065 4.615 4.99998H9.981C9.92433 5.18465 9.88533 5.35798 9.864 5.51998C9.84267 5.68198 9.82133 5.84198 9.8 5.99998H4.615C4.46167 5.99998 4.32067 6.06398 4.192 6.19198C4.06333 6.31998 3.99933 6.46132 4 6.61598V19.385C4 19.5383 4.064 19.6793 4.192 19.808C4.32 19.9366 4.461 20.0006 4.615 20H17.385C17.5383 20 17.6793 19.936 17.808 19.808C17.9367 19.68 18.0007 19.539 18 19.385V12.52ZM18.454 8.74598L21.769 12.062L21.062 12.769L17.746 9.45398C17.4473 9.71798 17.1013 9.91365 16.708 10.041C16.3147 10.1683 15.912 10.2316 15.5 10.231C14.4553 10.231 13.5723 9.87032 12.851 9.14898C12.1297 8.42765 11.769 7.54465 11.769 6.49998C11.769 5.45532 12.1297 4.57232 12.851 3.85098C13.5723 3.12965 14.4553 2.76898 15.5 2.76898C16.5447 2.76898 17.4277 3.12965 18.149 3.85098C18.8703 4.57232 19.231 5.45532 19.231 6.49998C19.231 6.94998 19.161 7.36232 19.021 7.73698C18.881 8.11098 18.692 8.44665 18.454 8.74598ZM17.439 8.43798C17.967 7.90998 18.231 7.26398 18.231 6.49998C18.231 5.73598 17.967 5.08965 17.439 4.56098C16.911 4.03232 16.2647 3.76865 15.5 3.76998C14.7353 3.77132 14.089 4.03565 13.561 4.56298C13.033 5.09032 12.7693 5.73598 12.77 6.49998C12.7707 7.26398 13.0347 7.91032 13.562 8.43898C14.0893 8.96765 14.7357 9.23165 15.501 9.23098C16.2663 9.23032 16.9127 8.96632 17.44 8.43898M4 12.519V20V5.99998V12.23V11.95V12.519Z" fill="#676B6D"/>
</svg>
