<svg width="42" height="42" viewBox="0 0 42 42" fill="none" xmlns="http://www.w3.org/2000/svg">
<circle cx="21" cy="21" r="21" fill="url(#paint0_linear_1187_337)"/>
<path d="M14.824 12.632L21 18.808L27.144 12.664C27.2797 12.5195 27.4432 12.4039 27.6246 12.3242C27.8061 12.2445 28.0018 12.2022 28.2 12.2C28.6243 12.2 29.0313 12.3685 29.3313 12.6686C29.6314 12.9686 29.8 13.3756 29.8 13.8C29.8037 13.9961 29.7673 14.191 29.693 14.3726C29.6187 14.5542 29.5081 14.7186 29.368 14.856L23.144 21L29.368 27.224C29.6317 27.4819 29.7863 27.8313 29.8 28.2C29.8 28.6243 29.6314 29.0313 29.3313 29.3313C29.0313 29.6314 28.6243 29.8 28.2 29.8C27.9961 29.8084 27.7926 29.7744 27.6026 29.7C27.4125 29.6256 27.24 29.5126 27.096 29.368L21 23.192L14.84 29.352C14.7048 29.4916 14.5433 29.6031 14.3648 29.68C14.1863 29.7569 13.9943 29.7976 13.8 29.8C13.3756 29.8 12.9687 29.6314 12.6686 29.3313C12.3685 29.0313 12.2 28.6243 12.2 28.2C12.1962 28.0038 12.2326 27.8089 12.3069 27.6273C12.3812 27.4458 12.4918 27.2813 12.632 27.144L18.856 21L12.632 14.776C12.3683 14.518 12.2136 14.1686 12.2 13.8C12.2 13.3756 12.3685 12.9686 12.6686 12.6686C12.9687 12.3685 13.3756 12.2 13.8 12.2C14.184 12.2048 14.552 12.36 14.824 12.632Z" fill="white"/>
<defs>
<linearGradient id="paint0_linear_1187_337" x1="21" y1="0" x2="21" y2="42" gradientUnits="userSpaceOnUse">
<stop stop-color="#DF4833"/>
<stop offset="1" stop-color="#79271C"/>
</linearGradient>
</defs>
</svg>
