<svg width="91" height="91" viewBox="0 0 91 91" fill="none" xmlns="http://www.w3.org/2000/svg">
<g filter="url(#filter0_d_1333_339)">
<rect x="29.3823" y="29.3823" width="32" height="32" rx="3" fill="white"/>
<rect x="29.6323" y="29.6323" width="31.5" height="31.5" rx="2.75" stroke="#676B6D" stroke-width="0.5"/>
</g>
<path fill-rule="evenodd" clip-rule="evenodd" d="M47.6323 37.3198H44.5903C43.2118 37.3198 42.1198 37.3198 41.2656 37.4346C40.3866 37.5531 39.6748 37.8021 39.1131 38.3631C38.5521 38.9248 38.3031 39.6366 38.1846 40.5156C38.0698 41.3706 38.0698 42.4618 38.0698 43.8403V48.3823C38.0697 49.0524 38.3088 49.7006 38.7441 50.21C39.1795 50.7194 39.7824 51.0567 40.4443 51.1611C40.5471 51.7341 40.7458 52.2231 41.1433 52.6213C41.5948 53.0728 42.1633 53.2663 42.8383 53.3578C43.4886 53.4448 44.3158 53.4448 45.3411 53.4448H47.6736C48.6988 53.4448 49.5261 53.4448 50.1763 53.3578C50.8513 53.2663 51.4198 53.0728 51.8713 52.6213C52.3228 52.1698 52.5163 51.6013 52.6078 50.9263C52.6948 50.2761 52.6948 49.4488 52.6948 48.4236V44.5911C52.6948 43.5658 52.6948 42.7386 52.6078 42.0883C52.5163 41.4133 52.3228 40.8448 51.8713 40.3933C51.4731 39.9958 50.9841 39.7971 50.4111 39.6943C50.3067 39.0324 49.9694 38.4295 49.46 37.9941C48.9506 37.5588 48.3024 37.3197 47.6323 37.3198ZM49.2298 39.5856C49.1158 39.2526 48.9005 38.9636 48.614 38.759C48.3276 38.5545 47.9843 38.4446 47.6323 38.4448H44.6323C43.2021 38.4448 42.1866 38.4463 41.4148 38.5498C40.6611 38.6511 40.2261 38.8416 39.9088 39.1588C39.5916 39.4761 39.4011 39.9111 39.2998 40.6648C39.1963 41.4366 39.1948 42.4521 39.1948 43.8823V48.3823C39.1946 48.7343 39.3045 49.0776 39.509 49.364C39.7136 49.6505 40.0026 49.8658 40.3356 49.9798C40.3198 49.5223 40.3198 49.0048 40.3198 48.4236V44.5911C40.3198 43.5658 40.3198 42.7386 40.4076 42.0883C40.4976 41.4133 40.6926 40.8448 41.1433 40.3933C41.5948 39.9418 42.1633 39.7483 42.8383 39.6576C43.4886 39.5698 44.3158 39.5698 45.3411 39.5698H47.6736C48.2548 39.5698 48.7723 39.5698 49.2298 39.5856ZM41.9383 41.1898C42.1461 40.9821 42.4371 40.8471 42.9883 40.7728C43.5538 40.6971 44.3053 40.6956 45.3816 40.6956H47.6316C48.7078 40.6956 49.4586 40.6971 50.0256 40.7728C50.5761 40.8471 50.8671 40.9828 51.0748 41.1898C51.2826 41.3976 51.4176 41.6886 51.4918 42.2398C51.5676 42.8053 51.5691 43.5568 51.5691 44.6331V48.3831C51.5691 49.4593 51.5676 50.2101 51.4918 50.7771C51.4176 51.3276 51.2818 51.6186 51.0748 51.8263C50.8671 52.0341 50.5761 52.1691 50.0248 52.2433C49.4586 52.3191 48.7078 52.3206 47.6316 52.3206H45.3816C44.3053 52.3206 43.5538 52.3191 42.9876 52.2433C42.4371 52.1691 42.1461 52.0333 41.9383 51.8263C41.7306 51.6186 41.5956 51.3276 41.5213 50.7763C41.4456 50.2101 41.4441 49.4593 41.4441 48.3831V44.6331C41.4441 43.5568 41.4456 42.8053 41.5213 42.2391C41.5956 41.6886 41.7313 41.3976 41.9383 41.1898Z" fill="#676B6D"/>
<defs>
<filter id="filter0_d_1333_339" x="-2.86102e-05" y="-2.86102e-05" width="90.7647" height="90.7647" filterUnits="userSpaceOnUse" color-interpolation-filters="sRGB">
<feFlood flood-opacity="0" result="BackgroundImageFix"/>
<feColorMatrix in="SourceAlpha" type="matrix" values="0 0 0 0 0 0 0 0 0 0 0 0 0 0 0 0 0 0 127 0" result="hardAlpha"/>
<feOffset/>
<feGaussianBlur stdDeviation="14.6912"/>
<feComposite in2="hardAlpha" operator="out"/>
<feColorMatrix type="matrix" values="0 0 0 0 0.756133 0 0 0 0 0.756133 0 0 0 0 0.756133 0 0 0 0.25 0"/>
<feBlend mode="normal" in2="BackgroundImageFix" result="effect1_dropShadow_1333_339"/>
<feBlend mode="normal" in="SourceGraphic" in2="effect1_dropShadow_1333_339" result="shape"/>
</filter>
</defs>
</svg>
