<svg width="39" height="39" viewBox="0 0 39 39" fill="none" xmlns="http://www.w3.org/2000/svg">
<circle cx="19.5" cy="19.5" r="19.5" fill="url(#paint0_linear_1187_336)"/>
<path d="M10 25.6667V16.5C10 16.0138 10.1932 15.5475 10.537 15.2036C10.8808 14.8598 11.3471 14.6667 11.8333 14.6667H12.2917C12.5763 14.6667 12.857 14.6004 13.1116 14.4731C13.3661 14.3458 13.5876 14.161 13.7583 13.9333L15.7933 11.22C15.8446 11.1517 15.911 11.0963 15.9874 11.0581C16.0637 11.0199 16.1479 11 16.2333 11H22.1C22.1854 11 22.2696 11.0199 22.346 11.0581C22.4223 11.0963 22.4888 11.1517 22.54 11.22L24.575 13.9333C24.7458 14.161 24.9672 14.3458 25.2218 14.4731C25.4763 14.6004 25.757 14.6667 26.0417 14.6667H26.5C26.9862 14.6667 27.4525 14.8598 27.7964 15.2036C28.1402 15.5475 28.3333 16.0138 28.3333 16.5V25.6667C28.3333 26.1529 28.1402 26.6192 27.7964 26.963C27.4525 27.3068 26.9862 27.5 26.5 27.5H11.8333C11.3471 27.5 10.8808 27.3068 10.537 26.963C10.1932 26.6192 10 26.1529 10 25.6667Z" stroke="white" stroke-width="1.5" stroke-linecap="round" stroke-linejoin="round"/>
<path d="M21.5929 23.5094C20.9053 24.197 19.9726 24.5833 19.0002 24.5833C18.0277 24.5833 17.0951 24.197 16.4074 23.5094C15.7198 22.8218 15.3335 21.8891 15.3335 20.9167C15.3335 19.9442 15.7198 19.0116 16.4074 18.3239C17.0951 17.6363 18.0277 17.25 19.0002 17.25C19.9726 17.25 20.9053 17.6363 21.5929 18.3239C22.2805 19.0116 22.6668 19.9442 22.6668 20.9167C22.6668 21.8891 22.2805 22.8218 21.5929 23.5094Z" stroke="white" stroke-width="1.5" stroke-linecap="round" stroke-linejoin="round"/>
<defs>
<linearGradient id="paint0_linear_1187_336" x1="19.5" y1="0" x2="19.5" y2="39" gradientUnits="userSpaceOnUse">
<stop stop-color="#DF4833"/>
<stop offset="1" stop-color="#79271C"/>
</linearGradient>
</defs>
</svg>
