<svg width="22" height="30" viewBox="0 0 22 30" fill="none" xmlns="http://www.w3.org/2000/svg">
<path d="M10.6672 29.886C8.62172 29.886 6.80353 29.5356 5.21262 28.8349C3.63119 28.1341 2.38118 27.1587 1.46262 25.9087C0.544064 24.6587 0.0563744 23.2146 -0.000443757 21.5763H5.34047C5.38781 22.3623 5.64823 23.0489 6.12172 23.636C6.5952 24.2137 7.22494 24.6635 8.01092 24.9854C8.79691 25.3074 9.67759 25.4684 10.653 25.4684C11.6946 25.4684 12.6179 25.2885 13.4229 24.9286C14.2278 24.5593 14.8575 24.0479 15.3121 23.3945C15.7666 22.7411 15.9891 21.9883 15.9797 21.136C15.9891 20.2553 15.7619 19.4788 15.2979 18.8065C14.8338 18.1341 14.1615 17.6085 13.2808 17.2298C12.4096 16.851 11.3585 16.6616 10.1274 16.6616H7.55637V12.5991H10.1274C11.1407 12.5991 12.0261 12.4239 12.7836 12.0735C13.5507 11.7231 14.152 11.2307 14.5876 10.5962C15.0232 9.9523 15.2363 9.20892 15.2268 8.36612C15.2363 7.54226 15.0516 6.8273 14.6729 6.22124C14.3035 5.6057 13.778 5.12748 13.0961 4.78658C12.4238 4.44567 11.6331 4.27521 10.724 4.27521C9.83384 4.27521 9.00997 4.4362 8.2524 4.75817C7.49482 5.08014 6.88403 5.53942 6.42001 6.13601C5.956 6.72313 5.70978 7.42389 5.68137 8.23828H0.610352C0.64823 6.60949 1.11698 5.17957 2.0166 3.94851C2.92569 2.70798 4.13781 1.74207 5.65297 1.05078C7.16812 0.350023 8.86793 -0.000356197 10.7524 -0.000356197C12.6937 -0.000356197 14.3793 0.364227 15.8092 1.09339C17.2486 1.81309 18.3613 2.78373 19.1473 4.00533C19.9333 5.22692 20.3263 6.57635 20.3263 8.05362C20.3357 9.69188 19.8528 11.065 18.8774 12.1729C17.9115 13.2809 16.6425 14.0053 15.0706 14.3462V14.5735C17.116 14.8576 18.6833 15.6152 19.7723 16.8462C20.8708 18.0678 21.4153 19.5877 21.4058 21.4059C21.4058 23.0347 20.9418 24.493 20.0138 25.7809C19.0952 27.0593 17.8263 28.0631 16.2069 28.7923C14.5971 29.5214 12.7505 29.886 10.6672 29.886Z" fill="url(#paint0_linear_822_115)"/>
<defs>
<linearGradient id="paint0_linear_822_115" x1="11.1416" y1="-2.51172" x2="11.1416" y2="32.4883" gradientUnits="userSpaceOnUse">
<stop stop-color="#DF4833"/>
<stop offset="1" stop-color="#79271C"/>
</linearGradient>
</defs>
</svg>
