<svg width="45" height="30" viewBox="0 0 45 30" fill="none" xmlns="http://www.w3.org/2000/svg">
<path d="M1.98846 29.4888L14.3606 5.00013V4.80127H-0.000177503V0.39786H19.8152V4.9007L7.45721 29.4888H1.98846ZM33.7949 29.8865C31.6831 29.8865 29.8081 29.5314 28.1699 28.8212C26.5411 28.1109 25.2627 27.1403 24.3347 25.9092C23.4161 24.6687 22.9616 23.2624 22.971 21.6905C22.9616 20.4689 23.2267 19.3467 23.7665 18.324C24.3063 17.3013 25.0354 16.449 25.954 15.7672C26.882 15.0759 27.9142 14.6355 29.0506 14.4462V14.2473C27.5544 13.9159 26.3422 13.1535 25.4142 11.9604C24.4956 10.7577 24.0411 9.3704 24.0506 7.79843C24.0411 6.30222 24.4578 4.96699 25.3006 3.79275C26.1434 2.6185 27.2987 1.69521 28.7665 1.02286C30.2343 0.341041 31.9104 0.000132084 33.7949 0.000132084C35.6604 0.000132084 37.3224 0.341041 38.7807 1.02286C40.2485 1.69521 41.4038 2.6185 42.2466 3.79275C43.0989 4.96699 43.525 6.30222 43.525 7.79843C43.525 9.3704 43.0563 10.7577 42.1188 11.9604C41.1907 13.1535 39.9928 13.9159 38.525 14.2473V14.4462C39.6614 14.6355 40.6841 15.0759 41.5932 15.7672C42.5117 16.449 43.2409 17.3013 43.7807 18.324C44.3299 19.3467 44.6046 20.4689 44.6046 21.6905C44.6046 23.2624 44.1405 24.6687 43.2125 25.9092C42.2845 27.1403 41.0061 28.1109 39.3773 28.8212C37.758 29.5314 35.8972 29.8865 33.7949 29.8865ZM33.7949 25.824C34.8839 25.824 35.8309 25.6393 36.6358 25.27C37.4407 24.8912 38.0657 24.3609 38.5108 23.6791C38.9559 22.9973 39.1831 22.2113 39.1926 21.3212C39.1831 20.3931 38.9417 19.574 38.4682 18.8638C38.0042 18.1441 37.365 17.5806 36.5506 17.1734C35.7456 16.7662 34.8271 16.5626 33.7949 16.5626C32.7532 16.5626 31.8252 16.7662 31.0108 17.1734C30.1964 17.5806 29.5525 18.1441 29.079 18.8638C28.615 19.574 28.3877 20.3931 28.3972 21.3212C28.3877 22.2113 28.6055 22.9973 29.0506 23.6791C29.4956 24.3515 30.1206 24.877 30.9256 25.2558C31.74 25.6346 32.6964 25.824 33.7949 25.824ZM33.7949 12.5712C34.685 12.5712 35.471 12.3912 36.1528 12.0314C36.8441 11.6715 37.3886 11.1696 37.7864 10.5257C38.1841 9.88176 38.3877 9.13839 38.3972 8.29559C38.3877 7.46225 38.1888 6.73309 37.8006 6.10809C37.4123 5.47362 36.8725 4.98593 36.1813 4.64502C35.49 4.29464 34.6945 4.11945 33.7949 4.11945C32.8763 4.11945 32.0667 4.29464 31.3659 4.64502C30.6746 4.98593 30.1349 5.47362 29.7466 6.10809C29.3678 6.73309 29.1831 7.46225 29.1926 8.29559C29.1831 9.13839 29.3725 9.88176 29.7608 10.5257C30.1585 11.1602 30.703 11.6621 31.3943 12.0314C32.0951 12.3912 32.8953 12.5712 33.7949 12.5712Z" fill="url(#paint0_linear_822_103)"/>
<defs>
<linearGradient id="paint0_linear_822_103" x1="22.8379" y1="-2.51123" x2="22.8379" y2="32.4888" gradientUnits="userSpaceOnUse">
<stop stop-color="#DF4833"/>
<stop offset="1" stop-color="#79271C"/>
</linearGradient>
</defs>
</svg>
