<svg width="46" height="30" viewBox="0 0 46 30" fill="none" xmlns="http://www.w3.org/2000/svg">
<path d="M10.4972 0.0284524C11.8892 0.0379224 13.2434 0.284135 14.5597 0.76709C15.8854 1.24057 17.0786 2.01709 18.1392 3.09663C19.1998 4.16671 20.0426 5.60137 20.6676 7.40061C21.2926 9.19985 21.6051 11.4252 21.6051 14.0767C21.6146 16.5767 21.3494 18.8116 20.8097 20.7813C20.2794 22.7415 19.517 24.3987 18.5227 25.7529C17.5284 27.1071 16.3305 28.1392 14.929 28.8495C13.5275 29.5597 11.9508 29.9148 10.1989 29.9148C8.36174 29.9148 6.73295 29.555 5.3125 28.8353C3.90152 28.1156 2.76042 27.1307 1.8892 25.8807C1.01799 24.6307 0.482955 23.2008 0.284091 21.591H5.46875C5.7339 22.7463 6.27367 23.6648 7.08807 24.3466C7.91193 25.019 8.94886 25.3552 10.1989 25.3552C12.2159 25.3552 13.7689 24.4792 14.858 22.7273C15.947 20.9754 16.4915 18.5417 16.4915 15.4262H16.2926C15.8286 16.2595 15.2273 16.9792 14.4886 17.5853C13.75 18.1819 12.9119 18.6411 11.9744 18.9631C11.0464 19.2851 10.0616 19.4461 9.01989 19.4461C7.31534 19.4461 5.78125 19.0389 4.41761 18.2245C3.06345 17.4101 1.98864 16.2927 1.19318 14.8722C0.407197 13.4517 0.00946979 11.8277 0 10C0 8.1061 0.435606 6.40629 1.30682 4.90061C2.1875 3.38546 3.41383 2.19228 4.9858 1.32107C6.55777 0.440384 8.39489 0.00951242 10.4972 0.0284524ZM10.5114 4.28982C9.48864 4.28982 8.56534 4.54076 7.74148 5.04266C6.92708 5.53508 6.28314 6.20743 5.80966 7.0597C5.34564 7.90251 5.11364 8.84474 5.11364 9.88641C5.12311 10.9186 5.35511 11.8561 5.80966 12.6989C6.27367 13.5417 6.90341 14.2093 7.69886 14.7017C8.50379 15.1942 9.42235 15.4404 10.4545 15.4404C11.2216 15.4404 11.9366 15.2936 12.5994 15C13.2623 14.7065 13.84 14.2993 14.3324 13.7785C14.8343 13.2482 15.2225 12.6468 15.4972 11.9745C15.7813 11.3021 15.9186 10.5919 15.9091 9.84379C15.9091 8.84948 15.6723 7.93092 15.1989 7.08811C14.7348 6.24531 14.0956 5.56823 13.2812 5.05686C12.4763 4.5455 11.553 4.28982 10.5114 4.28982ZM25.9755 29.5171V25.7103L36.0749 15.8097C37.0408 14.8343 37.8457 13.9678 38.4897 13.2103C39.1336 12.4527 39.6166 11.7188 39.9385 11.0086C40.2605 10.2983 40.4215 9.54076 40.4215 8.73584C40.4215 7.81728 40.2132 7.03129 39.7965 6.37788C39.3798 5.71501 38.8069 5.20364 38.0777 4.84379C37.3486 4.48394 36.52 4.30402 35.5919 4.30402C34.6355 4.30402 33.7974 4.50288 33.0777 4.90061C32.358 5.28887 31.7993 5.84285 31.4016 6.56254C31.0133 7.28224 30.8192 8.13925 30.8192 9.13357H25.805C25.805 7.28698 26.2264 5.68186 27.0692 4.31822C27.912 2.95459 29.0721 1.89872 30.5493 1.15061C32.0361 0.402506 33.7406 0.0284524 35.663 0.0284524C37.6137 0.0284524 39.3277 0.393036 40.805 1.1222C42.2823 1.85137 43.4281 2.85042 44.2425 4.11936C45.0664 5.3883 45.4783 6.83716 45.4783 8.46595C45.4783 9.55497 45.27 10.625 44.8533 11.6762C44.4366 12.7273 43.7027 13.8921 42.6516 15.1705C41.6099 16.4489 40.1469 17.9972 38.2624 19.8154L33.2482 24.9148V25.1137H45.9186V29.5171H25.9755Z" fill="url(#paint0_linear_822_92)"/>
<defs>
<linearGradient id="paint0_linear_822_92" x1="23.3125" y1="-2.48291" x2="23.3125" y2="32.5171" gradientUnits="userSpaceOnUse">
<stop stop-color="#DF4833"/>
<stop offset="1" stop-color="#79271C"/>
</linearGradient>
</defs>
</svg>
