<svg width="25" height="25" viewBox="0 0 25 25" fill="none" xmlns="http://www.w3.org/2000/svg">
<path d="M19.7917 3.125H5.20833C4.0625 3.125 3.125 4.0625 3.125 5.20833V19.7917C3.125 20.9375 4.0625 21.875 5.20833 21.875H19.7917C20.9375 21.875 21.875 20.9375 21.875 19.7917V5.20833C21.875 4.0625 20.9375 3.125 19.7917 3.125ZM5.20833 19.7917V5.20833H19.7917V19.7917H5.20833Z" fill="#DF4833"/>
<path d="M16.667 7.2915H8.33366C7.76074 7.2915 7.29199 7.76025 7.29199 8.33317V16.6665C7.29199 17.2394 7.76074 17.7082 8.33366 17.7082H16.667C17.2399 17.7082 17.7087 17.2394 17.7087 16.6665V8.33317C17.7087 7.76025 17.2399 7.2915 16.667 7.2915ZM15.6253 15.6248H9.37533V9.37484H15.6253V15.6248Z" fill="#DF4833"/>
</svg>
