<svg width="25" height="25" viewBox="0 0 25 25" fill="none" xmlns="http://www.w3.org/2000/svg">
<path d="M10.1562 23.4375C7.87705 23.4375 5.69119 22.5321 4.07955 20.9204C2.46791 19.3088 1.5625 17.123 1.5625 14.8438C1.5625 12.5645 2.46791 10.3787 4.07955 8.76705C5.69119 7.15541 7.87705 6.25 10.1562 6.25C10.3635 6.25 10.5622 6.33231 10.7087 6.47882C10.8552 6.62534 10.9375 6.82405 10.9375 7.03125V14.0625H17.9688C18.176 14.0625 18.3747 14.1448 18.5212 14.2913C18.6677 14.4378 18.75 14.6365 18.75 14.8438C18.75 17.123 17.8446 19.3088 16.2329 20.9204C14.6213 22.5321 12.4355 23.4375 10.1562 23.4375ZM9.375 7.85938C8.05876 8.00582 6.81063 8.52102 5.77434 9.34567C4.73805 10.1703 3.95572 11.2709 3.51744 12.5206C3.07915 13.7703 3.00274 15.1185 3.29699 16.4097C3.59123 17.701 4.24418 18.8829 5.18065 19.8194C6.11712 20.7558 7.29902 21.4088 8.59029 21.703C9.88155 21.9973 11.2297 21.9208 12.4794 21.4826C13.7291 21.0443 14.8297 20.262 15.6543 19.2257C16.479 18.1894 16.9942 16.9412 17.1406 15.625H10.9375C10.5231 15.625 10.1257 15.4604 9.83265 15.1674C9.53962 14.8743 9.375 14.4769 9.375 14.0625V7.85938Z" fill="#DF4833"/>
<path d="M21.875 10.9375H14.8438C14.4293 10.9375 14.0319 10.7729 13.7389 10.4799C13.4459 10.1868 13.2812 9.7894 13.2812 9.375V2.34375C13.2812 2.13655 13.3636 1.93784 13.5101 1.79132C13.6566 1.64481 13.8553 1.5625 14.0625 1.5625C16.3417 1.5625 18.5276 2.46791 20.1392 4.07955C21.7508 5.69119 22.6562 7.87705 22.6562 10.1562C22.6562 10.3635 22.5739 10.5622 22.4274 10.7087C22.2809 10.8552 22.0822 10.9375 21.875 10.9375ZM14.8438 9.375H21.0469C20.8691 7.79103 20.1584 6.31447 19.0313 5.18741C17.9043 4.06034 16.4277 3.34966 14.8438 3.17188V9.375Z" fill="#DF4833"/>
</svg>
