<svg width="35" height="35" viewBox="0 0 35 35" fill="none" xmlns="http://www.w3.org/2000/svg">
<path d="M17.5 8.75L19.5913 12.8002L24.0625 13.4498L20.7812 16.4062L21.875 20.7812L17.5 18.3203L13.125 20.7812L14.2188 16.4062L10.9375 13.4498L15.5312 12.8002L17.5 8.75Z" fill="url(#paint0_linear_673_147)"/>
<path d="M19.3988 32.8125L17.5 31.7188L21.875 24.0625H28.4375C28.7249 24.0629 29.0095 24.0066 29.2751 23.8969C29.5407 23.7871 29.782 23.626 29.9853 23.4228C30.1885 23.2195 30.3496 22.9782 30.4594 22.7126C30.5691 22.447 30.6254 22.1624 30.625 21.875V8.75C30.6254 8.46261 30.5691 8.17796 30.4594 7.91237C30.3496 7.64677 30.1885 7.40545 29.9853 7.20224C29.782 6.99903 29.5407 6.83791 29.2751 6.72813C29.0095 6.61835 28.7249 6.56207 28.4375 6.5625H6.5625C6.27511 6.56207 5.99046 6.61835 5.72487 6.72813C5.45927 6.83791 5.21795 6.99903 5.01474 7.20224C4.81153 7.40545 4.65041 7.64677 4.54063 7.91237C4.43085 8.17796 4.37457 8.46261 4.375 8.75V21.875C4.37457 22.1624 4.43085 22.447 4.54063 22.7126C4.65041 22.9782 4.81153 23.2195 5.01474 23.4228C5.21795 23.626 5.45927 23.7871 5.72487 23.8969C5.99046 24.0066 6.27511 24.0629 6.5625 24.0625H16.4062V26.25H6.5625C5.40218 26.25 4.28938 25.7891 3.46891 24.9686C2.64844 24.1481 2.1875 23.0353 2.1875 21.875V8.75C2.1875 7.58968 2.64844 6.47688 3.46891 5.65641C4.28938 4.83594 5.40218 4.375 6.5625 4.375H28.4375C29.5978 4.375 30.7106 4.83594 31.5311 5.65641C32.3516 6.47688 32.8125 7.58968 32.8125 8.75V21.875C32.8125 23.0353 32.3516 24.1481 31.5311 24.9686C30.7106 25.7891 29.5978 26.25 28.4375 26.25H23.1492L19.3988 32.8125Z" fill="url(#paint1_linear_673_147)"/>
<defs>
<linearGradient id="paint0_linear_673_147" x1="17.5" y1="8.75" x2="17.5" y2="20.7812" gradientUnits="userSpaceOnUse">
<stop stop-color="#DF4833"/>
<stop offset="1" stop-color="#79271C"/>
</linearGradient>
<linearGradient id="paint1_linear_673_147" x1="17.5" y1="4.375" x2="17.5" y2="32.8125" gradientUnits="userSpaceOnUse">
<stop stop-color="#DF4833"/>
<stop offset="1" stop-color="#79271C"/>
</linearGradient>
</defs>
</svg>
