<svg width="47" height="47" viewBox="0 0 47 47" fill="none" xmlns="http://www.w3.org/2000/svg">
<path d="M10.9977 39.1663C10.0955 39.1663 9.34288 38.8648 8.73972 38.2616C8.13655 37.6584 7.83431 36.9051 7.83301 36.0017V10.9977C7.83301 10.0955 8.13524 9.34288 8.73972 8.73972C9.34419 8.13655 10.0968 7.83431 10.9977 7.83301H36.0036C36.9045 7.83301 37.6571 8.13524 38.2616 8.73972C38.8661 9.34419 39.1676 10.0968 39.1663 10.9977V13.708H37.208V10.9977C37.208 10.6961 37.0827 10.4193 36.832 10.1673C36.5813 9.91537 36.3046 9.79004 36.0017 9.79134H10.9977C10.6961 9.79134 10.4193 9.91667 10.1673 10.1673C9.91537 10.418 9.79004 10.6948 9.79134 10.9977V36.0036C9.79134 36.3039 9.91667 36.58 10.1673 36.832C10.418 37.084 10.6941 37.2093 10.9957 37.208H36.0036C36.3039 37.208 36.58 37.0827 36.832 36.832C37.084 36.5813 37.2093 36.3052 37.208 36.0036V33.2913H39.1663V36.0036C39.1663 36.9045 38.8648 37.6565 38.2616 38.2596C37.6584 38.8628 36.9051 39.165 36.0017 39.1663H10.9977ZM32.7273 31.897L31.3781 30.5497L37.3627 24.4788H18.3786V22.5205H37.3627L31.3781 16.4497L32.7273 15.1023L41.1247 23.4997L32.7273 31.897Z" fill="#DF4833"/>
</svg>
