<svg width="51" height="51" viewBox="0 0 51 51" fill="none" xmlns="http://www.w3.org/2000/svg">
<path d="M43.3928 12.9839L26.4565 4.48387C25.8615 4.18637 25.139 4.18637 24.544 4.48387L7.60778 12.9839C6.94903 13.3026 6.52403 13.9401 6.43903 14.6626C6.41778 14.8964 4.39903 37.5276 24.6078 46.5589C24.881 46.6847 25.1782 46.7499 25.479 46.7499C25.7798 46.7499 26.0771 46.6847 26.3503 46.5589C46.559 37.5276 44.5615 14.8751 44.519 14.6626C44.4851 14.3059 44.3597 13.9639 44.155 13.6699C43.9502 13.3758 43.6731 13.1395 43.3503 12.9839H43.3928ZM25.5003 42.2876C11.1778 35.3389 10.4978 20.4851 10.6253 16.2351L25.5003 8.77637L40.3753 16.2351C40.4603 20.4639 39.674 35.4026 25.5003 42.2876Z" fill="url(#paint0_linear_697_79)"/>
<path d="M23.375 26.7537L20.6337 23.9912L17.6162 27.0087L23.375 32.7462L33.3837 22.7587L30.3662 19.7412L23.375 26.7537Z" fill="url(#paint1_linear_697_79)"/>
<defs>
<linearGradient id="paint0_linear_697_79" x1="25.4828" y1="4.26074" x2="25.4828" y2="46.7499" gradientUnits="userSpaceOnUse">
<stop stop-color="#DF4833"/>
<stop offset="1" stop-color="#79271C"/>
</linearGradient>
<linearGradient id="paint1_linear_697_79" x1="25.5" y1="19.7412" x2="25.5" y2="32.7462" gradientUnits="userSpaceOnUse">
<stop stop-color="#DF4833"/>
<stop offset="1" stop-color="#79271C"/>
</linearGradient>
</defs>
</svg>
