<svg width="72" height="64" viewBox="0 0 72 64" fill="none" xmlns="http://www.w3.org/2000/svg">
<circle cx="31" cy="31" r="31" fill="url(#paint0_linear_1635_339)"/>
<path d="M31.0003 41.8332L25.5837 36.4165L27.1003 34.8998L29.917 37.6894V26.6665H32.0837V37.6894L34.9003 34.8998L36.417 36.4165L31.0003 41.8332ZM21.9545 36.9582C21.3767 36.0735 20.9344 35.1255 20.6274 34.1144C20.3205 33.1033 20.167 32.0651 20.167 30.9998C20.167 29.5012 20.4515 28.0929 21.0207 26.7748C21.5898 25.4568 22.3615 24.3103 23.3357 23.3353C24.31 22.3603 25.4565 21.5886 26.7753 21.0202C28.0941 20.4518 29.5024 20.1672 31.0003 20.1665C32.4982 20.1658 33.9065 20.4503 35.2253 21.0202C36.5441 21.59 37.6906 22.3617 38.6649 23.3353C39.6392 24.3088 40.4112 25.4553 40.9811 26.7748C41.5509 28.0943 41.8351 29.5027 41.8337 30.9998C41.8337 32.0651 41.6802 33.1033 41.3732 34.1144C41.0663 35.1255 40.6239 36.0735 40.0462 36.9582L38.4753 35.3873C38.8725 34.7193 39.1705 34.0151 39.3691 33.2748C39.5677 32.5346 39.667 31.7762 39.667 30.9998C39.667 28.5804 38.8274 26.5311 37.1482 24.8519C35.4691 23.1728 33.4198 22.3332 31.0003 22.3332C28.5809 22.3332 26.5316 23.1728 24.8524 24.8519C23.1732 26.5311 22.3337 28.5804 22.3337 30.9998C22.3337 31.7762 22.433 32.5346 22.6316 33.2748C22.8302 34.0151 23.1281 34.7193 23.5253 35.3873L21.9545 36.9582Z" fill="white"/>
<circle cx="57" cy="49" r="14.5" fill="white" stroke="white"/>
<path d="M56.9993 54.1491C56.2323 54.1491 55.5505 54.0178 54.9539 53.755C54.3608 53.4922 53.8921 53.1264 53.5476 52.6577C53.2032 52.1889 53.0203 51.6474 52.999 51.033H55.0018C55.0196 51.3278 55.1172 51.5852 55.2948 51.8054C55.4723 52.022 55.7085 52.1907 56.0032 52.3114C56.298 52.4322 56.6282 52.4925 56.994 52.4925C57.3846 52.4925 57.7309 52.4251 58.0327 52.2901C58.3346 52.1516 58.5707 51.9599 58.7412 51.7148C58.9116 51.4698 58.9951 51.1875 58.9915 50.8679C58.9951 50.5376 58.9098 50.2464 58.7358 49.9943C58.5618 49.7422 58.3097 49.5451 57.9794 49.4031C57.6527 49.261 57.2586 49.19 56.7969 49.19H55.8328V47.6665H56.7969C57.1769 47.6665 57.5089 47.6009 57.793 47.4695C58.0807 47.3381 58.3062 47.1534 58.4695 46.9155C58.6329 46.674 58.7128 46.3952 58.7092 46.0792C58.7128 45.7702 58.6435 45.5021 58.5015 45.2749C58.363 45.044 58.1659 44.8647 57.9102 44.7369C57.6581 44.609 57.3616 44.5451 57.0206 44.5451C56.6868 44.5451 56.3779 44.6055 56.0938 44.7262C55.8097 44.8469 55.5807 45.0192 55.4066 45.2429C55.2326 45.4631 55.1403 45.7259 55.1297 46.0312H53.228C53.2422 45.4205 53.418 44.8842 53.7554 44.4226C54.0963 43.9574 54.5508 43.5952 55.119 43.3359C55.6872 43.0732 56.3246 42.9418 57.0313 42.9418C57.7593 42.9418 58.3914 43.0785 58.9276 43.3519C59.4674 43.6218 59.8846 43.9858 60.1794 44.4439C60.4741 44.902 60.6215 45.408 60.6215 45.962C60.625 46.5763 60.4439 47.0913 60.0782 47.5067C59.716 47.9222 59.2401 48.1939 58.6506 48.3217V48.407C59.4177 48.5135 60.0054 48.7976 60.4138 49.2592C60.8257 49.7173 61.0299 50.2873 61.0263 50.9691C61.0263 51.5799 60.8523 52.1268 60.5043 52.6097C60.1598 53.0891 59.684 53.4656 59.0767 53.739C58.4731 54.0124 57.7806 54.1491 56.9993 54.1491Z" fill="url(#paint1_linear_1635_339)"/>
<defs>
<linearGradient id="paint0_linear_1635_339" x1="31" y1="0" x2="31" y2="62" gradientUnits="userSpaceOnUse">
<stop stop-color="#DF4833"/>
<stop offset="1" stop-color="#79271C"/>
</linearGradient>
<linearGradient id="paint1_linear_1635_339" x1="57" y1="39" x2="57" y2="58" gradientUnits="userSpaceOnUse">
<stop stop-color="#DF4833"/>
<stop offset="1" stop-color="#79271C"/>
</linearGradient>
</defs>
</svg>
