<svg width="64" height="64" viewBox="0 0 64 64" fill="none" xmlns="http://www.w3.org/2000/svg">
<g clip-path="url(#clip0_1691_341)">
<path d="M0 32C0 14.3269 14.3269 0 32 0C49.6731 0 64 14.3269 64 32C64 49.6731 49.6731 64 32 64C14.3269 64 0 49.6731 0 32Z" fill="white"/>
<path d="M27.2495 37.192C26.3748 37.192 25.5962 36.9467 24.9135 36.456C24.2308 35.9547 23.6922 35.272 23.2975 34.408C22.9135 33.5333 22.7215 32.5307 22.7215 31.4C22.7215 30.2693 22.9135 29.272 23.2975 28.408C23.6922 27.5333 24.2255 26.8507 24.8975 26.36C25.5802 25.8587 26.3642 25.608 27.2495 25.608C28.1348 25.608 28.9188 25.8587 29.6015 26.36C30.2842 26.8507 30.8175 27.5333 31.2015 28.408C31.5962 29.272 31.7935 30.2693 31.7935 31.4C31.7935 32.5307 31.5962 33.5333 31.2015 34.408C30.8175 35.272 30.2842 35.9547 29.6015 36.456C28.9295 36.9467 28.1455 37.192 27.2495 37.192ZM27.2655 35.512C27.7882 35.512 28.2522 35.336 28.6575 34.984C29.0735 34.632 29.3935 34.1467 29.6175 33.528C29.8522 32.9093 29.9695 32.2 29.9695 31.4C29.9695 30.6 29.8522 29.8907 29.6175 29.272C29.3935 28.6427 29.0735 28.152 28.6575 27.8C28.2522 27.448 27.7828 27.272 27.2495 27.272C26.7162 27.272 26.2468 27.448 25.8415 27.8C25.4362 28.152 25.1162 28.6373 24.8815 29.256C24.6575 29.8747 24.5455 30.5893 24.5455 31.4C24.5455 32.2 24.6575 32.9093 24.8815 33.528C25.1162 34.1467 25.4362 34.632 25.8415 34.984C26.2575 35.336 26.7322 35.512 27.2655 35.512ZM36.506 37.192C35.898 37.192 35.3433 37.1013 34.842 36.92C34.3407 36.7387 33.9193 36.4827 33.578 36.152C33.2367 35.8213 32.9913 35.448 32.842 35.032L34.506 34.408C34.5913 34.5573 34.7087 34.7227 34.858 34.904C35.0073 35.0853 35.2047 35.2453 35.45 35.384C35.6953 35.512 36.01 35.576 36.394 35.576C37.002 35.576 37.482 35.4053 37.834 35.064C38.1967 34.712 38.378 34.2693 38.378 33.736C38.378 33.352 38.2767 33.0213 38.074 32.744C37.882 32.4667 37.578 32.2533 37.162 32.104C36.7567 31.9547 36.2447 31.88 35.626 31.88H35.114V30.344H35.626C36.4473 30.344 37.0713 30.2053 37.498 29.928C37.9247 29.6507 38.138 29.2613 38.138 28.76C38.138 28.472 38.0633 28.216 37.914 27.992C37.7753 27.7573 37.5727 27.5707 37.306 27.432C37.0393 27.2933 36.7247 27.224 36.362 27.224C36.1273 27.224 35.898 27.2613 35.674 27.336C35.45 27.4107 35.242 27.528 35.05 27.688C34.858 27.848 34.698 28.056 34.57 28.312L32.954 27.72C33.114 27.272 33.37 26.8933 33.722 26.584C34.074 26.264 34.4847 26.024 34.954 25.864C35.4233 25.6933 35.914 25.608 36.426 25.608C37.1087 25.608 37.7167 25.736 38.25 25.992C38.794 26.248 39.2207 26.6053 39.53 27.064C39.85 27.512 40.01 28.0293 40.01 28.616C40.01 29.192 39.8447 29.688 39.514 30.104C39.194 30.5093 38.762 30.8347 38.218 31.08C38.8367 31.368 39.3273 31.752 39.69 32.232C40.0633 32.7013 40.25 33.2667 40.25 33.928C40.25 34.6 40.074 35.1813 39.722 35.672C39.3807 36.1627 38.9273 36.5413 38.362 36.808C37.7967 37.064 37.178 37.192 36.506 37.192Z" fill="#DF4833"/>
</g>
<defs>
<clipPath id="clip0_1691_341">
<rect width="64" height="64" fill="white"/>
</clipPath>
</defs>
</svg>
