<svg width="64" height="64" viewBox="0 0 64 64" fill="none" xmlns="http://www.w3.org/2000/svg">
<g clip-path="url(#clip0_1691_343)">
<path d="M0 32C0 14.3269 14.3269 0 32 0C49.6731 0 64 14.3269 64 32C64 49.6731 49.6731 64 32 64C14.3269 64 0 49.6731 0 32Z" fill="white"/>
<path d="M26.5308 37.192C25.6561 37.192 24.8774 36.9467 24.1948 36.456C23.5121 35.9547 22.9734 35.272 22.5787 34.408C22.1947 33.5333 22.0027 32.5307 22.0027 31.4C22.0027 30.2693 22.1947 29.272 22.5787 28.408C22.9734 27.5333 23.5067 26.8507 24.1788 26.36C24.8614 25.8587 25.6454 25.608 26.5308 25.608C27.4161 25.608 28.2001 25.8587 28.8828 26.36C29.5654 26.8507 30.0988 27.5333 30.4827 28.408C30.8774 29.272 31.0747 30.2693 31.0747 31.4C31.0747 32.5307 30.8774 33.5333 30.4827 34.408C30.0988 35.272 29.5654 35.9547 28.8828 36.456C28.2108 36.9467 27.4268 37.192 26.5308 37.192ZM26.5468 35.512C27.0694 35.512 27.5334 35.336 27.9388 34.984C28.3548 34.632 28.6748 34.1467 28.8988 33.528C29.1334 32.9093 29.2508 32.2 29.2508 31.4C29.2508 30.6 29.1334 29.8907 28.8988 29.272C28.6748 28.6427 28.3548 28.152 27.9388 27.8C27.5334 27.448 27.0641 27.272 26.5308 27.272C25.9974 27.272 25.5281 27.448 25.1228 27.8C24.7174 28.152 24.3974 28.6373 24.1628 29.256C23.9388 29.8747 23.8268 30.5893 23.8268 31.4C23.8268 32.2 23.9388 32.9093 24.1628 33.528C24.3974 34.1467 24.7174 34.632 25.1228 34.984C25.5387 35.336 26.0134 35.512 26.5468 35.512ZM36.0433 37.192C35.5526 37.192 35.0513 37.1173 34.5393 36.968C34.0379 36.808 33.5739 36.5733 33.1473 36.264C32.7206 35.944 32.3953 35.544 32.1713 35.064L33.8193 34.456C34.0966 34.8507 34.4219 35.1387 34.7953 35.32C35.1686 35.4907 35.5526 35.576 35.9473 35.576C36.5766 35.576 37.0886 35.3893 37.4833 35.016C37.8779 34.632 38.0753 34.1253 38.0753 33.496C38.0753 32.888 37.8833 32.3867 37.4993 31.992C37.1153 31.5973 36.6139 31.4 35.9953 31.4C35.6326 31.4 35.2913 31.48 34.9713 31.64C34.6619 31.8 34.4219 31.992 34.2513 32.216L32.5713 31.848L33.1953 25.8H39.3873V27.48H34.7953L34.4753 30.52C34.7633 30.3493 35.0833 30.216 35.4353 30.12C35.7979 30.0133 36.1766 29.96 36.5713 29.96C37.2113 29.96 37.7873 30.1093 38.2993 30.408C38.8113 30.7067 39.2166 31.1173 39.5153 31.64C39.8139 32.152 39.9633 32.744 39.9633 33.416C39.9633 34.1627 39.7926 34.8187 39.4513 35.384C39.1206 35.9493 38.6619 36.392 38.0753 36.712C37.4886 37.032 36.8113 37.192 36.0433 37.192Z" fill="#DF4833"/>
</g>
<defs>
<clipPath id="clip0_1691_343">
<rect width="64" height="64" fill="white"/>
</clipPath>
</defs>
</svg>
