<svg width="64" height="64" viewBox="0 0 64 64" fill="none" xmlns="http://www.w3.org/2000/svg">
<g clip-path="url(#clip0_1691_339)">
<path d="M0 32C0 14.3269 14.3269 0 32 0C49.6731 0 64 14.3269 64 32C64 49.6731 49.6731 64 32 64C14.3269 64 0 49.6731 0 32Z" fill="white"/>
<path d="M28.3042 37.192C27.4295 37.192 26.6509 36.9467 25.9682 36.456C25.2855 35.9547 24.7469 35.272 24.3522 34.408C23.9682 33.5333 23.7762 32.5307 23.7762 31.4C23.7762 30.2693 23.9682 29.272 24.3522 28.408C24.7469 27.5333 25.2802 26.8507 25.9522 26.36C26.6349 25.8587 27.4189 25.608 28.3042 25.608C29.1895 25.608 29.9735 25.8587 30.6562 26.36C31.3389 26.8507 31.8722 27.5333 32.2562 28.408C32.6509 29.272 32.8482 30.2693 32.8482 31.4C32.8482 32.5307 32.6509 33.5333 32.2562 34.408C31.8722 35.272 31.3389 35.9547 30.6562 36.456C29.9842 36.9467 29.2002 37.192 28.3042 37.192ZM28.3202 35.512C28.8429 35.512 29.3069 35.336 29.7122 34.984C30.1282 34.632 30.4482 34.1467 30.6722 33.528C30.9069 32.9093 31.0242 32.2 31.0242 31.4C31.0242 30.6 30.9069 29.8907 30.6722 29.272C30.4482 28.6427 30.1282 28.152 29.7122 27.8C29.3069 27.448 28.8375 27.272 28.3042 27.272C27.7709 27.272 27.3015 27.448 26.8962 27.8C26.4909 28.152 26.1709 28.6373 25.9362 29.256C25.7122 29.8747 25.6002 30.5893 25.6002 31.4C25.6002 32.2 25.7122 32.9093 25.9362 33.528C26.1709 34.1467 26.4909 34.632 26.8962 34.984C27.3122 35.336 27.7869 35.512 28.3202 35.512ZM36.4087 37V28.168C36.0247 28.456 35.6247 28.6853 35.2087 28.856C34.8034 29.0267 34.3927 29.1013 33.9767 29.08V27.4C34.222 27.4107 34.4994 27.3413 34.8087 27.192C35.1287 27.032 35.4434 26.824 35.7527 26.568C36.0727 26.312 36.35 26.056 36.5847 25.8H38.2007V37H36.4087Z" fill="#DF4833"/>
</g>
<defs>
<clipPath id="clip0_1691_339">
<rect width="64" height="64" fill="white"/>
</clipPath>
</defs>
</svg>
