<svg width="64" height="64" viewBox="0 0 64 64" fill="none" xmlns="http://www.w3.org/2000/svg">
<g clip-path="url(#clip0_1691_340)">
<path d="M0 32C0 14.3269 14.3269 0 32 0C49.6731 0 64 14.3269 64 32C64 49.6731 49.6731 64 32 64C14.3269 64 0 49.6731 0 32Z" fill="white"/>
<path d="M26.5854 37.192C25.7108 37.192 24.9321 36.9467 24.2494 36.456C23.5668 35.9547 23.0281 35.272 22.6334 34.408C22.2494 33.5333 22.0574 32.5307 22.0574 31.4C22.0574 30.2693 22.2494 29.272 22.6334 28.408C23.0281 27.5333 23.5614 26.8507 24.2334 26.36C24.9161 25.8587 25.7001 25.608 26.5854 25.608C27.4708 25.608 28.2548 25.8587 28.9374 26.36C29.6201 26.8507 30.1534 27.5333 30.5374 28.408C30.9321 29.272 31.1294 30.2693 31.1294 31.4C31.1294 32.5307 30.9321 33.5333 30.5374 34.408C30.1534 35.272 29.6201 35.9547 28.9374 36.456C28.2654 36.9467 27.4814 37.192 26.5854 37.192ZM26.6014 35.512C27.1241 35.512 27.5881 35.336 27.9934 34.984C28.4094 34.632 28.7294 34.1467 28.9534 33.528C29.1881 32.9093 29.3054 32.2 29.3054 31.4C29.3054 30.6 29.1881 29.8907 28.9534 29.272C28.7294 28.6427 28.4094 28.152 27.9934 27.8C27.5881 27.448 27.1188 27.272 26.5854 27.272C26.0521 27.272 25.5828 27.448 25.1774 27.8C24.7721 28.152 24.4521 28.6373 24.2174 29.256C23.9934 29.8747 23.8814 30.5893 23.8814 31.4C23.8814 32.2 23.9934 32.9093 24.2174 33.528C24.4521 34.1467 24.7721 34.632 25.1774 34.984C25.5934 35.336 26.0681 35.512 26.6014 35.512ZM32.2899 37V35.576C32.2899 35.2453 32.3753 34.904 32.5459 34.552C32.7166 34.1893 32.9566 33.8267 33.2659 33.464C33.5859 33.1013 33.9593 32.76 34.3859 32.44L36.3379 31.032C36.5833 30.8613 36.8073 30.664 37.0099 30.44C37.2233 30.216 37.3939 29.9813 37.5219 29.736C37.6499 29.48 37.7139 29.2293 37.7139 28.984C37.7139 28.6747 37.6339 28.392 37.4739 28.136C37.3246 27.88 37.1059 27.6773 36.8179 27.528C36.5406 27.3787 36.1993 27.304 35.7939 27.304C35.4313 27.304 35.1059 27.3787 34.8179 27.528C34.5406 27.6667 34.3113 27.8533 34.1299 28.088C33.9486 28.3227 33.8206 28.5787 33.7459 28.856L31.8419 28.504C31.9486 27.992 32.1726 27.5173 32.5139 27.08C32.8659 26.632 33.3139 26.2747 33.8579 26.008C34.4126 25.7413 35.0419 25.608 35.7459 25.608C36.5353 25.608 37.2179 25.752 37.7939 26.04C38.3806 26.328 38.8286 26.728 39.1379 27.24C39.4579 27.7413 39.6179 28.3173 39.6179 28.968C39.6179 29.6293 39.4366 30.2267 39.0739 30.76C38.7219 31.2827 38.2259 31.784 37.5859 32.264L35.7939 33.592C35.4419 33.848 35.1539 34.1253 34.9299 34.424C34.7059 34.712 34.5513 35.0213 34.4659 35.352H39.7619V37H32.2899Z" fill="#DF4833"/>
</g>
<defs>
<clipPath id="clip0_1691_340">
<rect width="64" height="64" fill="white"/>
</clipPath>
</defs>
</svg>
