<svg width="64" height="64" viewBox="0 0 64 64" fill="none" xmlns="http://www.w3.org/2000/svg">
<g clip-path="url(#clip0_1691_342)">
<path d="M0 32C0 14.3269 14.3269 0 32 0C49.6731 0 64 14.3269 64 32C64 49.6731 49.6731 64 32 64C14.3269 64 0 49.6731 0 32Z" fill="white"/>
<path d="M26.6323 37.192C25.7576 37.192 24.979 36.9467 24.2963 36.456C23.6136 35.9547 23.075 35.272 22.6803 34.408C22.2963 33.5333 22.1043 32.5307 22.1043 31.4C22.1043 30.2693 22.2963 29.272 22.6803 28.408C23.075 27.5333 23.6083 26.8507 24.2803 26.36C24.963 25.8587 25.747 25.608 26.6323 25.608C27.5176 25.608 28.3016 25.8587 28.9843 26.36C29.667 26.8507 30.2003 27.5333 30.5843 28.408C30.979 29.272 31.1763 30.2693 31.1763 31.4C31.1763 32.5307 30.979 33.5333 30.5843 34.408C30.2003 35.272 29.667 35.9547 28.9843 36.456C28.3123 36.9467 27.5283 37.192 26.6323 37.192ZM26.6483 35.512C27.171 35.512 27.635 35.336 28.0403 34.984C28.4563 34.632 28.7763 34.1467 29.0003 33.528C29.235 32.9093 29.3523 32.2 29.3523 31.4C29.3523 30.6 29.235 29.8907 29.0003 29.272C28.7763 28.6427 28.4563 28.152 28.0403 27.8C27.635 27.448 27.1656 27.272 26.6323 27.272C26.099 27.272 25.6296 27.448 25.2243 27.8C24.819 28.152 24.499 28.6373 24.2643 29.256C24.0403 29.8747 23.9283 30.5893 23.9283 31.4C23.9283 32.2 24.0403 32.9093 24.2643 33.528C24.499 34.1467 24.819 34.632 25.2243 34.984C25.6403 35.336 26.115 35.512 26.6483 35.512ZM37.1848 37V34.6H32.0008V33.128L37.0088 25.8H38.9608V32.984H41.0408V34.6H38.9608V37H37.1848ZM33.9688 32.984H37.1848V28.264L33.9688 32.984Z" fill="#DF4833"/>
</g>
<defs>
<clipPath id="clip0_1691_342">
<rect width="64" height="64" fill="white"/>
</clipPath>
</defs>
</svg>
