<svg width="72" height="64" viewBox="0 0 72 64" fill="none" xmlns="http://www.w3.org/2000/svg">
<circle cx="31" cy="31" r="31" fill="url(#paint0_linear_1633_337)"/>
<path d="M26.9378 37.5H35.0628V39.125H26.9378V37.5ZM28.5628 40.75H33.4378V42.375H28.5628V40.75ZM31.0003 19.625C28.8454 19.625 26.7787 20.481 25.255 22.0048C23.7313 23.5285 22.8753 25.5951 22.8753 27.75C22.8203 28.9308 23.0465 30.1078 23.5352 31.1842C24.024 32.2605 24.7613 33.2055 25.6865 33.9413C26.499 34.6969 26.9378 35.1275 26.9378 35.875H28.5628C28.5628 34.38 27.6609 33.5431 26.7834 32.7387C26.024 32.1572 25.4188 31.3984 25.0207 30.5286C24.6227 29.6589 24.444 28.7048 24.5003 27.75C24.5003 26.0261 25.1851 24.3728 26.4041 23.1538C27.6231 21.9348 29.2764 21.25 31.0003 21.25C32.7242 21.25 34.3775 21.9348 35.5965 23.1538C36.8154 24.3728 37.5003 26.0261 37.5003 27.75C37.5556 28.7055 37.3756 29.66 36.9762 30.5298C36.5767 31.3996 35.9699 32.1581 35.209 32.7387C34.3396 33.5512 33.4378 34.3638 33.4378 35.875H35.0628C35.0628 35.1275 35.4934 34.6969 36.314 33.9331C37.2386 33.1986 37.9756 32.2551 38.4643 31.1801C38.953 30.1052 39.1796 28.9296 39.1253 27.75C39.1253 26.683 38.9151 25.6265 38.5068 24.6407C38.0985 23.6549 37.5 22.7592 36.7455 22.0048C35.991 21.2503 35.0953 20.6518 34.1096 20.2435C33.1238 19.8352 32.0672 19.625 31.0003 19.625Z" fill="white"/>
<circle cx="57" cy="49" r="14.5" fill="white" stroke="white"/>
<path d="M58.8031 43.0909V54H56.8269V45.0138H56.763L54.2115 46.6438V44.8327L56.9228 43.0909H58.8031Z" fill="url(#paint1_linear_1633_337)"/>
<defs>
<linearGradient id="paint0_linear_1633_337" x1="31" y1="0" x2="31" y2="62" gradientUnits="userSpaceOnUse">
<stop stop-color="#DF4833"/>
<stop offset="1" stop-color="#79271C"/>
</linearGradient>
<linearGradient id="paint1_linear_1633_337" x1="57" y1="39" x2="57" y2="58" gradientUnits="userSpaceOnUse">
<stop stop-color="#DF4833"/>
<stop offset="1" stop-color="#79271C"/>
</linearGradient>
</defs>
</svg>
