<svg width="25" height="25" viewBox="0 0 25 25" fill="none" xmlns="http://www.w3.org/2000/svg">
<path d="M23.2086 15.0727L20.8648 12.7289C20.7183 12.5824 20.5197 12.5002 20.3125 12.5002C20.1053 12.5002 19.9067 12.5824 19.7602 12.7289L12.5 19.9891V23.4375H15.9484L23.2086 16.1773C23.3551 16.0308 23.4373 15.8322 23.4373 15.625C23.4373 15.4178 23.3551 15.2192 23.2086 15.0727ZM15.3016 21.875H14.0625V20.6359L17.9687 16.7297L19.2078 17.9688L15.3016 21.875ZM20.3125 16.8641L19.0734 15.625L20.3125 14.3859L21.5516 15.625L20.3125 16.8641ZM13.2812 11.7188H8.59375C7.97215 11.7188 7.37601 11.9657 6.93647 12.4052C6.49693 12.8448 6.25 13.4409 6.25 14.0625V14.8438H7.8125V14.0625C7.8125 13.8553 7.89481 13.6566 8.04132 13.5101C8.18784 13.3636 8.38655 13.2813 8.59375 13.2813H13.2812C13.4885 13.2813 13.6872 13.3636 13.8337 13.5101C13.9802 13.6566 14.0625 13.8553 14.0625 14.0625V14.8438H15.625V14.0625C15.625 13.4409 15.3781 12.8448 14.9385 12.4052C14.499 11.9657 13.9029 11.7188 13.2812 11.7188ZM10.9375 10.9375C11.5556 10.9375 12.1598 10.7542 12.6737 10.4108C13.1876 10.0675 13.5881 9.57941 13.8246 9.00839C14.0611 8.43737 14.123 7.80903 14.0025 7.20284C13.8819 6.59665 13.5842 6.03983 13.1472 5.60279C12.7102 5.16575 12.1533 4.86813 11.5472 4.74755C10.941 4.62697 10.3126 4.68885 9.74161 4.92538C9.17059 5.1619 8.68254 5.56244 8.33916 6.07634C7.99578 6.59025 7.8125 7.19443 7.8125 7.8125C7.8125 8.6413 8.14174 9.43616 8.72779 10.0222C9.31384 10.6083 10.1087 10.9375 10.9375 10.9375ZM10.9375 6.25C11.2465 6.25 11.5486 6.34164 11.8056 6.51333C12.0625 6.68502 12.2628 6.92905 12.3811 7.21456C12.4993 7.50007 12.5303 7.81423 12.47 8.11733C12.4097 8.42043 12.2609 8.69884 12.0424 8.91736C11.8238 9.13588 11.5454 9.28469 11.2423 9.34498C10.9392 9.40527 10.6251 9.37433 10.3396 9.25606C10.054 9.1378 9.81002 8.93753 9.63833 8.68058C9.46664 8.42363 9.375 8.12153 9.375 7.8125C9.375 7.3981 9.53962 7.00067 9.83265 6.70765C10.1257 6.41462 10.5231 6.25 10.9375 6.25Z" fill="#DF4833"/>
<path d="M9.375 23.4375H4.6875C4.2731 23.4375 3.87567 23.2729 3.58265 22.9799C3.28962 22.6868 3.125 22.2894 3.125 21.875V3.125C3.125 2.7106 3.28962 2.31317 3.58265 2.02015C3.87567 1.72712 4.2731 1.5625 4.6875 1.5625H17.1875C17.6019 1.5625 17.9993 1.72712 18.2924 2.02015C18.5854 2.31317 18.75 2.7106 18.75 3.125V10.9375H17.1875V3.125H4.6875V21.875H9.375V23.4375Z" fill="#DF4833"/>
</svg>
