<svg width="40" height="40" viewBox="0 0 40 40" fill="none" xmlns="http://www.w3.org/2000/svg">
<g clip-path="url(#clip0_906_514)">
<path d="M39.5892 24.089L35.8435 20.3433C35.6093 20.1092 35.2918 19.9777 34.9607 19.9777C34.6296 19.9777 34.3121 20.1092 34.078 20.3433L22.4749 31.9463V37.4575H27.9862L39.5892 25.8545C39.8233 25.6203 39.9548 25.3028 39.9548 24.9717C39.9548 24.6407 39.8233 24.3231 39.5892 24.089ZM26.9523 34.9604H24.9721V32.9801L31.215 26.7372L33.1952 28.7175L26.9523 34.9604ZM34.9607 26.952L32.9805 24.9717L34.9607 22.9915L36.941 24.9717L34.9607 26.952ZM12.4863 19.9774H24.9721V22.4746H12.4863V19.9774ZM12.4863 12.486H27.4693V14.9831H12.4863V12.486Z" fill="url(#paint0_linear_906_514)"/>
<path d="M32.4629 4.99447C32.4629 4.33218 32.1998 3.69702 31.7315 3.22871C31.2632 2.76041 30.6281 2.49731 29.9658 2.49731H4.99423C4.33195 2.49731 3.69679 2.76041 3.22848 3.22871C2.76017 3.69702 2.49708 4.33218 2.49708 4.99447V21.226C2.49416 23.7161 3.16952 26.16 4.45065 28.2953C5.73177 30.4306 7.57029 32.1766 9.7688 33.3459L16.2314 36.792V33.9615L10.945 31.1422C9.14655 30.1849 7.64257 28.7563 6.59426 27.0094C5.54595 25.2625 4.99284 23.2633 4.99423 21.226V4.99447H29.9658V16.2317H32.4629V4.99447Z" fill="url(#paint1_linear_906_514)"/>
</g>
<defs>
<linearGradient id="paint0_linear_906_514" x1="26.2205" y1="12.486" x2="26.2205" y2="37.4575" gradientUnits="userSpaceOnUse">
<stop stop-color="#DF4833"/>
<stop offset="1" stop-color="#79271C"/>
</linearGradient>
<linearGradient id="paint1_linear_906_514" x1="17.48" y1="2.49731" x2="17.48" y2="36.792" gradientUnits="userSpaceOnUse">
<stop stop-color="#DF4833"/>
<stop offset="1" stop-color="#79271C"/>
</linearGradient>
<clipPath id="clip0_906_514">
<rect width="39.9545" height="39.9545" fill="white"/>
</clipPath>
</defs>
</svg>
