<svg width="86" height="43" viewBox="0 0 86 43" fill="none" xmlns="http://www.w3.org/2000/svg">
<path d="M42.7144 31.4586C38.1407 38.1582 29.4976 42.7139 21.3573 42.7139C9.56156 42.7139 0.000130536 33.1524 0.000131567 21.3567C0.000132598 9.561 9.56157 -0.000422435 21.3573 -0.000421403C29.4976 -0.000420692 38.1407 4.55523 42.7144 11.2548C47.2881 4.55523 55.9312 -0.000418381 64.0716 -0.000417669C75.8673 -0.000416638 85.4287 9.56101 85.4287 21.3567C85.4287 33.1524 75.8673 42.7139 64.0716 42.7139C55.9312 42.7139 47.2881 38.1582 42.7144 31.4586ZM64.0716 9.85673C56.7198 9.85673 49.2859 15.9879 49.2859 21.3567C49.2859 26.7256 56.7198 32.8567 64.0716 32.8567C67.1216 32.8567 70.0466 31.6451 72.2033 29.4885C74.36 27.3318 75.5716 24.4067 75.5716 21.3567C75.5716 18.3067 74.36 15.3817 72.2033 13.225C70.0466 11.0683 67.1216 9.85673 64.0716 9.85673ZM21.3573 9.85672C18.3073 9.85672 15.3822 11.0683 13.2256 13.225C11.0689 15.3817 9.85728 18.3067 9.85728 21.3567C9.85728 24.4067 11.0689 27.3318 13.2255 29.4884C15.3822 31.6451 18.3073 32.8567 21.3573 32.8567C28.7091 32.8567 36.143 26.7256 36.143 21.3567C36.143 15.9879 28.7091 9.85672 21.3573 9.85672Z" fill="white"/>
</svg>
