<svg width="40" height="40" viewBox="0 0 40 40" fill="none" xmlns="http://www.w3.org/2000/svg">
<g clip-path="url(#clip0_906_510)">
<path d="M33.9778 35.7926C34.4373 32.7578 34.96 28.0731 34.96 22.4745C34.96 12.4858 33.2952 5.41058 33.2952 5.41058L33.212 4.99438H4.99414V5.41058C4.99414 5.41058 6.65891 12.4858 6.65891 22.4745C6.65891 32.4631 4.99414 39.5384 4.99414 39.5384V39.9546H38.2063L38.2895 39.5384C38.2895 39.5384 39.9543 32.4631 39.9543 22.4745C39.9543 17.3636 39.5181 13.0169 39.0936 9.98869H34.1276M29.6577 29.9659H11.3452M10.7925 9.98869C11.481 14.9516 11.7572 19.9631 11.6183 24.9716H29.9307C30.0697 19.9631 29.7935 14.9516 29.105 9.98869H10.7925Z" stroke="url(#paint0_linear_906_510)" stroke-width="0.594561"/>
</g>
<defs>
<linearGradient id="paint0_linear_906_510" x1="22.4742" y1="4.99438" x2="22.4742" y2="39.9546" gradientUnits="userSpaceOnUse">
<stop stop-color="#DF4833"/>
<stop offset="1" stop-color="#79271C"/>
</linearGradient>
<clipPath id="clip0_906_510">
<rect width="39.9545" height="39.9545" fill="white"/>
</clipPath>
</defs>
</svg>
