<svg width="32" height="32" viewBox="0 0 32 32" fill="none" xmlns="http://www.w3.org/2000/svg">
<path d="M13 2.64687C13.2652 2.64687 13.5196 2.74801 13.7071 2.92804C13.8946 3.10808 14 3.35226 14 3.60687C14 3.86147 13.8946 4.10565 13.7071 4.28569C13.5196 4.46572 13.2652 4.56687 13 4.56687H6C4.93913 4.56687 3.92172 4.97144 3.17157 5.69158C2.42143 6.41172 2 7.38843 2 8.40687V23.7669C2 24.7853 2.42143 25.762 3.17157 26.4822C3.92172 27.2023 4.93913 27.6069 6 27.6069H22C23.0609 27.6069 24.0783 27.2023 24.8284 26.4822C25.5786 25.762 26 24.7853 26 23.7669V20.8869C26 20.6323 26.1054 20.3881 26.2929 20.208C26.4804 20.028 26.7348 19.9269 27 19.9269C27.2652 19.9269 27.5196 20.028 27.7071 20.208C27.8946 20.3881 28 20.6323 28 20.8869V23.7669C28 25.2945 27.3679 26.7596 26.2426 27.8398C25.1174 28.92 23.5913 29.5269 22 29.5269H6C4.4087 29.5269 2.88258 28.92 1.75736 27.8398C0.632141 26.7596 0 25.2945 0 23.7669L0 8.40687C0 6.87922 0.632141 5.41414 1.75736 4.33393C2.88258 3.25372 4.4087 2.64687 6 2.64687H13ZM21 0.726866C21.2471 0.726593 21.4855 0.814139 21.6693 0.972626L31.6693 9.61263C31.7728 9.70319 31.8555 9.81349 31.9121 9.93647C31.9687 10.0595 31.9979 10.1924 31.9979 10.3269C31.9979 10.4613 31.9687 10.5943 31.9121 10.7173C31.8555 10.8402 31.7728 10.9505 31.6693 11.0411L21.6693 19.6811C21.4855 19.8396 21.2471 19.9271 21 19.9269C20.34 19.9269 19.9987 19.388 19.9987 18.9669V14.8197C13.62 15.3803 9.29467 20.8984 8.20933 22.6776L7.89333 23.2369C7.79263 23.4306 7.62674 23.5858 7.42257 23.6776C7.2184 23.7693 6.98793 23.7921 6.76856 23.7423C6.54918 23.6925 6.35377 23.573 6.21402 23.4032C6.07427 23.2334 5.99838 23.0233 5.99867 22.8069C5.99867 5.25039 19.628 5.56911 19.9987 5.55119V1.68559L20.008 1.54479C20.044 1.31311 20.2987 0.725586 20.9987 0.725586L21 0.726866ZM22 6.48687C22 6.74147 21.8946 6.98565 21.7071 7.16569C21.5196 7.34572 21.2652 7.44687 21 7.44687C15.8253 7.44687 12.6467 9.45391 10.7133 12.2917C9.34267 14.3051 8.56667 16.7832 8.22133 19.3637C9.15913 18.2804 10.2075 17.2898 11.3507 16.4069C13.8867 14.4574 17.2013 12.851 21.0013 12.851C21.2665 12.851 21.5209 12.9522 21.7084 13.1322C21.896 13.3122 22.0013 13.5564 22.0013 13.811V16.8062L29.5027 10.3256L22.0013 3.84239V6.48559L22 6.48687Z" fill="#DF4833"/>
</svg>
