<svg width="56" height="56" viewBox="0 0 56 56" fill="none" xmlns="http://www.w3.org/2000/svg">
<circle cx="27.9692" cy="27.9692" r="24.6787" stroke="#FBE8D8" stroke-width="6.58098"/>
<circle cx="27.969" cy="27.969" r="16.7815" fill="url(#paint0_linear_1718_339)"/>
<path d="M27.6396 28.435C26.9487 28.435 26.2862 28.1606 25.7976 27.672C25.3091 27.1835 25.0346 26.5209 25.0346 25.83C25.0346 25.1392 25.3091 24.4766 25.7976 23.9881C26.2862 23.4995 26.9487 23.2251 27.6396 23.2251C28.3305 23.2251 28.9931 23.4995 29.4816 23.9881C29.9701 24.4766 30.2446 25.1392 30.2446 25.83C30.2446 26.1721 30.1772 26.5109 30.0463 26.8269C29.9154 27.143 29.7235 27.4301 29.4816 27.672C29.2397 27.9139 28.9525 28.1058 28.6365 28.2367C28.3204 28.3676 27.9817 28.435 27.6396 28.435ZM27.6396 18.5361C25.7052 18.5361 23.8499 19.3046 22.482 20.6725C21.1142 22.0403 20.3457 23.8956 20.3457 25.83C20.3457 31.3005 27.6396 39.3759 27.6396 39.3759C27.6396 39.3759 34.9335 31.3005 34.9335 25.83C34.9335 23.8956 34.1651 22.0403 32.7972 20.6725C31.4293 19.3046 29.5741 18.5361 27.6396 18.5361Z" fill="white"/>
<defs>
<linearGradient id="paint0_linear_1718_339" x1="27.969" y1="11.1875" x2="27.969" y2="44.7505" gradientUnits="userSpaceOnUse">
<stop stop-color="#DF4833"/>
<stop offset="1" stop-color="#79271C"/>
</linearGradient>
</defs>
</svg>
