<svg width="35" height="35" viewBox="0 0 35 35" fill="none" xmlns="http://www.w3.org/2000/svg">
<path d="M18.9951 2.33366L30.6982 9.33366C31.1357 9.60102 31.476 9.9656 31.7191 10.4274C31.9621 10.8892 32.0837 11.3753 32.0837 11.8857V27.7087C32.0837 28.5107 31.7983 29.1976 31.2276 29.7693C30.6569 30.341 29.97 30.6263 29.167 30.6253H5.83366C5.03158 30.6253 4.34519 30.34 3.77449 29.7693C3.2038 29.1986 2.91796 28.5117 2.91699 27.7087V11.8857C2.91699 11.3753 3.03852 10.8892 3.28158 10.4274C3.52463 9.9656 3.86491 9.60102 4.30241 9.33366L16.0055 2.33366C16.4673 2.0663 16.9656 1.93262 17.5003 1.93262C18.035 1.93262 18.5333 2.0663 18.9951 2.33366ZM17.5003 18.4482L28.8753 11.667L17.5003 4.88574L6.12533 11.667L17.5003 18.4482ZM16.0055 20.9639L5.83366 14.8753V27.7087H29.167V14.8753L18.9951 20.9639C18.5333 21.2312 18.035 21.3649 17.5003 21.3649C16.9656 21.3649 16.4673 21.2312 16.0055 20.9639ZM18.9951 27.7087H29.167H5.83366H18.9951Z" fill="url(#paint0_linear_673_142)"/>
<defs>
<linearGradient id="paint0_linear_673_142" x1="17.5003" y1="1.93262" x2="17.5003" y2="30.6253" gradientUnits="userSpaceOnUse">
<stop stop-color="#DF4833"/>
<stop offset="1" stop-color="#79271C"/>
</linearGradient>
</defs>
</svg>
