<svg width="42" height="42" viewBox="0 0 42 42" fill="none" xmlns="http://www.w3.org/2000/svg">
<path d="M38.9813 25.3312L35.0438 21.3937C34.5188 20.8687 33.7312 20.8687 33.2062 21.3937L21 33.6V39.375H26.775L38.9813 27.1688C39.5063 26.6438 39.5063 25.8562 38.9813 25.3312ZM25.725 36.75H23.625V34.65L30.1875 28.0875L32.2875 30.1875L25.725 36.75ZM34.125 28.35L32.025 26.25L34.125 24.15L36.225 26.25L34.125 28.35ZM13.125 30.1875H15.75V32.8125H13.125V30.1875ZM18.375 23.625H23.625V26.25H18.375V23.625ZM13.125 23.625H15.75V26.25H13.125V23.625ZM18.375 17.0625H28.875V19.6875H18.375V17.0625ZM13.125 17.0625H15.75V19.6875H13.125V17.0625Z" fill="#DF4833"/>
<path d="M9.1875 36.75V9.1875H13.125V13.125H28.875V9.1875H32.8125V17.0625H35.4375V9.1875C35.4375 7.74375 34.2563 6.5625 32.8125 6.5625H28.875V5.25C28.875 3.80625 27.6938 2.625 26.25 2.625H15.75C14.3063 2.625 13.125 3.80625 13.125 5.25V6.5625H9.1875C7.74375 6.5625 6.5625 7.74375 6.5625 9.1875V36.75C6.5625 38.1937 7.74375 39.375 9.1875 39.375H15.75V36.75H9.1875ZM15.75 5.25H26.25V10.5H15.75V5.25Z" fill="#DF4833"/>
</svg>
