<svg width="72" height="64" viewBox="0 0 72 64" fill="none" xmlns="http://www.w3.org/2000/svg">
<circle cx="31" cy="31" r="31" fill="url(#paint0_linear_1636_340)"/>
<path d="M20.167 39.6668H41.8337V25.5835C41.8337 24.7168 41.487 23.8935 40.8803 23.2868C40.2737 22.6802 39.4503 22.3335 38.5837 22.3335H23.417C22.5503 22.3335 21.727 22.6802 21.1203 23.2868C20.5137 23.8935 20.167 24.7168 20.167 25.5835V39.6668ZM39.667 29.9168H34.2503V27.7502H27.7503V29.9168H22.3337V25.5835C22.3337 25.3018 22.4528 25.0418 22.6478 24.8143C22.8753 24.6193 23.1353 24.5002 23.417 24.5002H38.5837C38.8762 24.5002 39.1253 24.6193 39.3528 24.8143C39.5587 25.0418 39.667 25.3018 39.667 25.5835V29.9168ZM34.2503 32.0835H39.667V37.5002H22.3337V32.0835H27.7503L29.917 34.2502H32.0837L34.2503 32.0835ZM29.917 29.9168H32.0837V32.0835H29.917V29.9168Z" fill="white"/>
<circle cx="57" cy="49" r="14.5" fill="white" stroke="white"/>
<path d="M52.7773 51.9759V50.4045L57.4062 43.0909H58.7165V45.3281H57.9175L54.8014 50.266V50.3512H61.2627V51.9759H52.7773ZM57.9814 54V51.4964L58.0028 50.7933V43.0909H59.8671V54H57.9814Z" fill="url(#paint1_linear_1636_340)"/>
<defs>
<linearGradient id="paint0_linear_1636_340" x1="31" y1="0" x2="31" y2="62" gradientUnits="userSpaceOnUse">
<stop stop-color="#DF4833"/>
<stop offset="1" stop-color="#79271C"/>
</linearGradient>
<linearGradient id="paint1_linear_1636_340" x1="57" y1="39" x2="57" y2="58" gradientUnits="userSpaceOnUse">
<stop stop-color="#DF4833"/>
<stop offset="1" stop-color="#79271C"/>
</linearGradient>
</defs>
</svg>
