<svg width="35" height="35" viewBox="0 0 35 35" fill="none" xmlns="http://www.w3.org/2000/svg">
<path d="M23.3333 6.5625C23.3333 5.98234 23.5638 5.42594 23.974 5.0157C24.3843 4.60547 24.9407 4.375 25.5208 4.375H28.4375C29.0177 4.375 29.5741 4.60547 29.9843 5.0157C30.3945 5.42594 30.625 5.98234 30.625 6.5625V28.4375C30.625 29.0177 30.3945 29.5741 29.9843 29.9843C29.5741 30.3945 29.0177 30.625 28.4375 30.625H25.5208C24.9407 30.625 24.3843 30.3945 23.974 29.9843C23.5638 29.5741 23.3333 29.0177 23.3333 28.4375V6.5625ZM13.8542 15.3125C13.8542 14.7323 14.0846 14.1759 14.4949 13.7657C14.9051 13.3555 15.4615 13.125 16.0417 13.125H18.9583C19.5385 13.125 20.0949 13.3555 20.5051 13.7657C20.9154 14.1759 21.1458 14.7323 21.1458 15.3125V28.4375C21.1458 29.0177 20.9154 29.5741 20.5051 29.9843C20.0949 30.3945 19.5385 30.625 18.9583 30.625H16.0417C15.4615 30.625 14.9051 30.3945 14.4949 29.9843C14.0846 29.5741 13.8542 29.0177 13.8542 28.4375V15.3125ZM6.5625 21.875C5.98234 21.875 5.42594 22.1055 5.0157 22.5157C4.60547 22.9259 4.375 23.4823 4.375 24.0625V28.4375C4.375 29.0177 4.60547 29.5741 5.0157 29.9843C5.42594 30.3945 5.98234 30.625 6.5625 30.625H9.47917C10.0593 30.625 10.6157 30.3945 11.026 29.9843C11.4362 29.5741 11.6667 29.0177 11.6667 28.4375V24.0625C11.6667 23.4823 11.4362 22.9259 11.026 22.5157C10.6157 22.1055 10.0593 21.875 9.47917 21.875H6.5625Z" fill="url(#paint0_linear_906_602)"/>
<defs>
<linearGradient id="paint0_linear_906_602" x1="17.5" y1="4.375" x2="17.5" y2="30.625" gradientUnits="userSpaceOnUse">
<stop stop-color="#DF4833"/>
<stop offset="1" stop-color="#79271C"/>
</linearGradient>
</defs>
</svg>
