<svg width="40" height="40" viewBox="0 0 40 40" fill="none" xmlns="http://www.w3.org/2000/svg">
<path d="M24.8747 33.2955L26.5395 34.9602H10.1815C9.41458 34.9602 8.77475 34.7039 8.262 34.1911C7.74925 33.6784 7.49232 33.0385 7.49121 32.2716V7.68299C7.49121 6.91719 7.74814 6.27792 8.262 5.76517C8.77586 5.25242 9.41569 4.99549 10.1815 4.99438H23.3715L30.798 13.8942V32.2716C30.798 32.5269 30.7281 32.7822 30.5882 33.0374C30.4484 33.2927 30.2664 33.5197 30.0422 33.7183L22.0263 25.7208C21.5546 26.0471 21.0885 26.2812 20.6279 26.4233C20.1684 26.5654 19.674 26.6364 19.1446 26.6364C17.7717 26.6364 16.5958 26.1475 15.617 25.1697C14.6381 24.192 14.1492 23.0161 14.1503 21.6421C14.1514 20.2681 14.6381 19.0922 15.6103 18.1144C16.5825 17.1367 17.7606 16.6478 19.1446 16.6478C20.5286 16.6478 21.7067 17.1367 22.6789 18.1144C23.6511 19.0922 24.1378 20.2681 24.1389 21.6421C24.1389 22.2159 24.0629 22.732 23.9108 23.1903C23.7588 23.6487 23.5296 24.0926 23.2233 24.5221L29.1332 30.5153V14.4836L22.5574 6.65915H10.1815C9.92511 6.65915 9.68982 6.7657 9.47562 6.97879C9.26142 7.19188 9.15487 7.42661 9.15598 7.68299V32.2716C9.15598 32.5269 9.26253 32.7616 9.47562 32.9758C9.68871 33.19 9.92344 33.2966 10.1798 33.2955H24.8747ZM21.4953 23.9944C22.1478 23.3418 22.4741 22.5577 22.4741 21.6421C22.4741 20.7265 22.1484 19.9429 21.4969 19.2914C20.8454 18.6399 20.0613 18.3137 19.1446 18.3125C18.2279 18.3114 17.4443 18.6377 16.7939 19.2914C16.1436 19.9451 15.8173 20.7287 15.8151 21.6421C15.8128 22.5555 16.1391 23.3396 16.7939 23.9944C17.4488 24.6492 18.2323 24.975 19.1446 24.9716C20.0569 24.9683 20.841 24.6426 21.4969 23.9944" fill="url(#paint0_linear_906_508)"/>
<defs>
<linearGradient id="paint0_linear_906_508" x1="19.1446" y1="4.99438" x2="19.1446" y2="34.9602" gradientUnits="userSpaceOnUse">
<stop stop-color="#DF4833"/>
<stop offset="1" stop-color="#79271C"/>
</linearGradient>
</defs>
</svg>
