<svg width="40" height="40" viewBox="0 0 40 40" fill="none" xmlns="http://www.w3.org/2000/svg">
<g clip-path="url(#clip0_906_517)">
<path d="M39.5882 24.0888L35.8425 20.3431C35.6083 20.109 35.2908 19.9775 34.9597 19.9775C34.6287 19.9775 34.3111 20.109 34.077 20.3431L22.474 31.9461V37.4573H27.9852L39.5882 25.8543C39.8223 25.6201 39.9538 25.3026 39.9538 24.9715C39.9538 24.6405 39.8223 24.3229 39.5882 24.0888ZM26.9514 34.9602H24.9711V32.9799L31.214 26.737L33.1943 28.7173L26.9514 34.9602ZM34.9597 26.9518L32.9795 24.9715L34.9597 22.9913L36.94 24.9715L34.9597 26.9518ZM23.7225 18.7287H16.2311C15.2377 18.7287 14.2849 19.1233 13.5825 19.8258C12.88 20.5282 12.4854 21.481 12.4854 22.4744V23.723H14.9825V22.4744C14.9825 22.1432 15.1141 21.8257 15.3482 21.5915C15.5824 21.3574 15.8999 21.2258 16.2311 21.2258H23.7225C24.0537 21.2258 24.3713 21.3574 24.6054 21.5915C24.8396 21.8257 24.9711 22.1432 24.9711 22.4744V23.723H27.4683V22.4744C27.4683 21.481 27.0736 20.5282 26.3712 19.8258C25.6687 19.1233 24.716 18.7287 23.7225 18.7287ZM19.9768 17.4801C20.9646 17.4801 21.9302 17.1872 22.7515 16.6384C23.5728 16.0896 24.2129 15.3096 24.591 14.397C24.969 13.4844 25.0679 12.4802 24.8752 11.5114C24.6825 10.5426 24.2068 9.65272 23.5083 8.95426C22.8099 8.25579 21.92 7.78013 20.9512 7.58742C19.9824 7.39472 18.9782 7.49362 18.0656 7.87163C17.153 8.24963 16.373 8.88977 15.8242 9.71108C15.2754 10.5324 14.9825 11.498 14.9825 12.4858C14.9825 13.8103 15.5087 15.0807 16.4453 16.0173C17.3819 16.9539 18.6522 17.4801 19.9768 17.4801ZM19.9768 9.98861C20.4707 9.98861 20.9535 10.1351 21.3642 10.4095C21.7748 10.6838 22.0949 11.0739 22.2839 11.5301C22.4729 11.9864 22.5223 12.4885 22.426 12.9729C22.3296 13.4573 22.0918 13.9023 21.7426 14.2515C21.3933 14.6008 20.9484 14.8386 20.464 14.9349C19.9796 15.0313 19.4775 14.9818 19.0212 14.7928C18.5649 14.6038 18.1749 14.2838 17.9005 13.8731C17.6261 13.4625 17.4797 12.9797 17.4797 12.4858C17.4797 11.8235 17.7428 11.1883 18.2111 10.72C18.6794 10.2517 19.3145 9.98861 19.9768 9.98861Z" fill="url(#paint0_linear_906_517)"/>
<path d="M17.4798 37.4572H9.98837C9.32608 37.4572 8.69092 37.1941 8.22261 36.7258C7.7543 36.2575 7.49121 35.6224 7.49121 34.9601V4.99423C7.49121 4.33194 7.7543 3.69678 8.22261 3.22847C8.69092 2.76016 9.32608 2.49707 9.98837 2.49707H29.9656C30.6279 2.49707 31.2631 2.76016 31.7314 3.22847C32.1997 3.69678 32.4628 4.33194 32.4628 4.99423V17.48H29.9656V4.99423H9.98837V34.9601H17.4798V37.4572Z" fill="url(#paint1_linear_906_517)"/>
</g>
<defs>
<linearGradient id="paint0_linear_906_517" x1="26.2196" y1="7.49146" x2="26.2196" y2="37.4573" gradientUnits="userSpaceOnUse">
<stop stop-color="#DF4833"/>
<stop offset="1" stop-color="#79271C"/>
</linearGradient>
<linearGradient id="paint1_linear_906_517" x1="19.977" y1="2.49707" x2="19.977" y2="37.4572" gradientUnits="userSpaceOnUse">
<stop stop-color="#DF4833"/>
<stop offset="1" stop-color="#79271C"/>
</linearGradient>
<clipPath id="clip0_906_517">
<rect width="39.9545" height="39.9545" fill="white"/>
</clipPath>
</defs>
</svg>
