<svg width="56" height="56" viewBox="0 0 56 56" fill="none" xmlns="http://www.w3.org/2000/svg">
<circle cx="27.9692" cy="27.9692" r="24.6787" stroke="#FBE8D8" stroke-width="6.58098"/>
<circle cx="27.969" cy="25.969" r="16.7815" fill="url(#paint0_linear_1718_336)"/>
<path d="M22.0347 25.6952C23.5352 28.644 25.9526 31.051 28.9014 32.5619L31.1938 30.2695C31.4751 29.9882 31.8919 29.8944 32.2566 30.0195C33.4236 30.405 34.6844 30.6134 35.9765 30.6134C36.5496 30.6134 37.0185 31.0823 37.0185 31.6554V35.2919C37.0185 35.865 36.5496 36.3339 35.9765 36.3339C26.1922 36.3339 18.2627 28.4044 18.2627 18.6201C18.2627 18.047 18.7316 17.5781 19.3047 17.5781H22.9516C23.5247 17.5781 23.9936 18.047 23.9936 18.6201C23.9936 19.9226 24.202 21.173 24.5876 22.34C24.7022 22.7047 24.6188 23.1111 24.3271 23.4028L22.0347 25.6952Z" fill="white"/>
<defs>
<linearGradient id="paint0_linear_1718_336" x1="27.969" y1="9.1875" x2="27.969" y2="42.7505" gradientUnits="userSpaceOnUse">
<stop stop-color="#DF4833"/>
<stop offset="1" stop-color="#79271C"/>
</linearGradient>
</defs>
</svg>
