<svg width="40" height="40" viewBox="0 0 40 40" fill="none" xmlns="http://www.w3.org/2000/svg">
<g clip-path="url(#clip0_906_512)">
<path d="M26.2201 0.0390625L39.9545 6.90624V22.2208L37.4573 20.9722V9.69603L27.4687 14.6903V19.7237L24.9715 20.9722V14.6903L14.9829 9.69603V14.1246L12.4858 12.876V6.90624L26.2201 0.0390625ZM26.2201 12.5248L29.6732 10.7885L20.6405 5.61864L16.5241 7.6866L26.2201 12.5248ZM32.3655 9.46192L35.9161 7.6866L26.2201 2.82885L23.3133 4.29203L32.3655 9.46192ZM22.4744 22.2208L19.9772 23.4694V23.4499L12.4858 27.1956V36.0722L19.9772 32.307V35.1163L11.2372 39.4863L0 33.8482V20.6601L11.2372 15.0415L22.4744 20.6601V22.2208ZM9.98862 36.0722V27.1956L2.49715 23.4499V32.307L9.98862 36.0722ZM11.2372 25.0301L18.436 21.4405L11.2372 17.8313L4.03837 21.4405L11.2372 25.0301ZM22.4744 25.0106L31.2144 20.6406L39.9545 25.0106V35.2919L31.2144 39.6619L22.4744 35.2919V25.0106ZM29.9659 36.2478V30.2976L24.9715 27.8004V33.7507L29.9659 36.2478ZM37.4573 33.7507V27.8004L32.463 30.2976V36.2478L37.4573 33.7507ZM31.2144 28.1321L35.9161 25.7715L31.2144 23.4304L26.5128 25.7715L31.2144 28.1321Z" fill="url(#paint0_linear_906_512)"/>
</g>
<defs>
<linearGradient id="paint0_linear_906_512" x1="19.9772" y1="0.0390625" x2="19.9772" y2="39.6619" gradientUnits="userSpaceOnUse">
<stop stop-color="#DF4833"/>
<stop offset="1" stop-color="#79271C"/>
</linearGradient>
<clipPath id="clip0_906_512">
<rect width="39.9545" height="39.9545" fill="white"/>
</clipPath>
</defs>
</svg>
