<svg width="35" height="35" viewBox="0 0 35 35" fill="none" xmlns="http://www.w3.org/2000/svg">
<g clip-path="url(#clip0_673_112)">
<path d="M10.3906 2.18795C10.9033 2.18795 11.342 2.23922 11.7065 2.34176C12.0711 2.4443 12.4015 2.58101 12.6978 2.75191C12.994 2.92281 13.256 3.09941 13.4839 3.2817C13.7118 3.46399 13.9396 3.64058 14.1675 3.81148C14.3953 3.98238 14.646 4.1134 14.9194 4.20455C15.1929 4.2957 15.5062 4.35266 15.8594 4.37545H32.8125C33.1201 4.37545 33.4049 4.43241 33.667 4.54635C33.929 4.66028 34.1569 4.81409 34.3506 5.00777C34.5443 5.20146 34.7038 5.43502 34.8291 5.70846C34.9544 5.98189 35.0114 6.26672 35 6.56295V13.1254H32.8125V6.56295H15.8594C15.5062 6.56295 15.1986 6.61422 14.9365 6.71676C14.6745 6.8193 14.4238 6.95601 14.1846 7.12691C13.9453 7.29781 13.7118 7.47441 13.4839 7.6567C13.256 7.83899 12.9997 8.01558 12.7148 8.18648C12.43 8.35738 12.0996 8.4884 11.7236 8.57955C11.3477 8.6707 10.9033 8.72766 10.3906 8.75045H2.1875V28.438H4.375V30.6255H0V4.37545C0 4.06783 0.0569661 3.783 0.170898 3.52096C0.284831 3.25891 0.438639 3.03105 0.632324 2.83736C0.826009 2.64368 1.05957 2.48417 1.33301 2.35885C1.60645 2.23352 1.89128 2.17655 2.1875 2.18795H10.3906ZM10.3906 6.56295C10.6641 6.56295 10.9033 6.54016 11.1084 6.49459C11.3135 6.44902 11.5015 6.37496 11.6724 6.27242C11.8433 6.16988 12.0085 6.05595 12.168 5.93062C12.3275 5.8053 12.5098 5.65149 12.7148 5.4692C12.5212 5.2983 12.3446 5.15019 12.1851 5.02486C12.0256 4.89954 11.8547 4.7856 11.6724 4.68306C11.4901 4.58053 11.3021 4.50647 11.1084 4.4609C10.9147 4.41532 10.6755 4.38684 10.3906 4.37545H2.1875V6.56295H10.3906ZM35 15.3129V35.0005H6.5625V15.3129H35ZM32.8125 17.5004H8.75V32.813H32.8125V17.5004ZM30.625 21.8755H24.0625V19.688H30.625V21.8755ZM28.4375 26.2505H24.0625V24.063H28.4375V26.2505ZM28.4375 30.6255H24.0625V28.438H28.4375V30.6255ZM21.875 30.6255H10.9375V19.688H21.875V30.6255ZM19.6875 21.8755H13.125V28.438H19.6875V21.8755Z" fill="url(#paint0_linear_673_112)"/>
</g>
<defs>
<linearGradient id="paint0_linear_673_112" x1="17.5007" y1="2.18652" x2="17.5007" y2="35.0005" gradientUnits="userSpaceOnUse">
<stop stop-color="#DF4833"/>
<stop offset="1" stop-color="#79271C"/>
</linearGradient>
<clipPath id="clip0_673_112">
<rect width="35" height="35" fill="white"/>
</clipPath>
</defs>
</svg>
