<svg width="25" height="25" viewBox="0 0 25 25" fill="none" xmlns="http://www.w3.org/2000/svg">
<path d="M4.6875 21.875C5.55045 21.875 6.25 21.1754 6.25 20.3125C6.25 19.4496 5.55045 18.75 4.6875 18.75C3.82456 18.75 3.125 19.4496 3.125 20.3125C3.125 21.1754 3.82456 21.875 4.6875 21.875Z" fill="#DF4833"/>
<path d="M21.875 14.0625H19.5312V12.5C19.5312 12.0856 19.3666 11.6882 19.0736 11.3951C18.7806 11.1021 18.3832 10.9375 17.9688 10.9375H14.8438C14.4293 10.9375 14.0319 11.1021 13.7389 11.3951C13.4459 11.6882 13.2812 12.0856 13.2812 12.5V14.0625H10.9375C10.5231 14.0625 10.1257 14.2271 9.83265 14.5201C9.53962 14.8132 9.375 15.2106 9.375 15.625V21.875C9.375 22.2894 9.53962 22.6868 9.83265 22.9799C10.1257 23.2729 10.5231 23.4375 10.9375 23.4375H21.875C22.2894 23.4375 22.6868 23.2729 22.9799 22.9799C23.2729 22.6868 23.4375 22.2894 23.4375 21.875V15.625C23.4375 15.2106 23.2729 14.8132 22.9799 14.5201C22.6868 14.2271 22.2894 14.0625 21.875 14.0625ZM14.8438 12.5H17.9688V14.0625H14.8438V12.5ZM21.875 21.875H10.9375V15.625H21.875V21.875Z" fill="#DF4833"/>
<path d="M7.8125 4.6875H10.9375V9.375H12.5V4.6875H15.625V9.375H17.1875V4.6875H20.3125V9.375H21.875V4.69141C21.875 4.27597 21.71 3.87755 21.4162 3.58379C21.1225 3.29003 20.724 3.125 20.3086 3.125H3.12891C2.71347 3.125 2.31505 3.29003 2.02129 3.58379C1.72753 3.87755 1.5625 4.27597 1.5625 4.69141V15.6211C1.5625 16.0365 1.72753 16.435 2.02129 16.7287C2.31505 17.0225 2.71347 17.1875 3.12891 17.1875H7.8125V4.6875ZM6.25 15.625H3.125V4.6875H6.25V15.625Z" fill="#DF4833"/>
</svg>
