<svg width="72" height="64" viewBox="0 0 72 64" fill="none" xmlns="http://www.w3.org/2000/svg">
<circle cx="31" cy="31" r="31" fill="url(#paint0_linear_1633_338)"/>
<path d="M31 24.5L32.5535 27.5087L35.875 27.9913L33.4375 30.1875L34.25 33.4375L31 31.6094L27.75 33.4375L28.5625 30.1875L26.125 27.9913L29.5375 27.5087L31 24.5Z" fill="white"/>
<path d="M32.4105 42.375L31 41.5625L34.25 35.875H39.125C39.3385 35.8753 39.5499 35.8335 39.7472 35.752C39.9445 35.6704 40.1238 35.5507 40.2748 35.3998C40.4257 35.2488 40.5454 35.0695 40.627 34.8722C40.7085 34.6749 40.7503 34.4635 40.75 34.25V24.5C40.7503 24.2865 40.7085 24.0751 40.627 23.8778C40.5454 23.6805 40.4257 23.5012 40.2748 23.3502C40.1238 23.1993 39.9445 23.0796 39.7472 22.998C39.5499 22.9165 39.3385 22.8747 39.125 22.875H22.875C22.6615 22.8747 22.4501 22.9165 22.2528 22.998C22.0555 23.0796 21.8762 23.1993 21.7252 23.3502C21.5743 23.5012 21.4546 23.6805 21.373 23.8778C21.2915 24.0751 21.2497 24.2865 21.25 24.5V34.25C21.2497 34.4635 21.2915 34.6749 21.373 34.8722C21.4546 35.0695 21.5743 35.2488 21.7252 35.3998C21.8762 35.5507 22.0555 35.6704 22.2528 35.752C22.4501 35.8335 22.6615 35.8753 22.875 35.875H30.1875V37.5H22.875C22.013 37.5 21.1864 37.1576 20.5769 36.5481C19.9674 35.9386 19.625 35.112 19.625 34.25V24.5C19.625 23.638 19.9674 22.8114 20.5769 22.2019C21.1864 21.5924 22.013 21.25 22.875 21.25H39.125C39.987 21.25 40.8136 21.5924 41.4231 22.2019C42.0326 22.8114 42.375 23.638 42.375 24.5V34.25C42.375 35.112 42.0326 35.9386 41.4231 36.5481C40.8136 37.1576 39.987 37.5 39.125 37.5H35.1966L32.4105 42.375Z" fill="white"/>
<circle cx="57" cy="49" r="14.5" fill="white" stroke="white"/>
<path d="M53.3113 54V52.5724L57.0985 48.8597C57.4608 48.494 57.7626 48.169 58.0041 47.8849C58.2456 47.6009 58.4267 47.3256 58.5474 47.0593C58.6681 46.793 58.7285 46.5089 58.7285 46.207C58.7285 45.8626 58.6504 45.5678 58.4941 45.3228C58.3379 45.0742 58.123 44.8825 57.8496 44.7475C57.5762 44.6126 57.2654 44.5451 56.9174 44.5451C56.5588 44.5451 56.2445 44.6197 55.9746 44.7688C55.7047 44.9144 55.4952 45.1222 55.3461 45.392C55.2005 45.6619 55.1277 45.9833 55.1277 46.3562H53.2473C53.2473 45.6637 53.4054 45.0618 53.7214 44.5504C54.0375 44.0391 54.4725 43.6431 55.0265 43.3626C55.584 43.082 56.2232 42.9418 56.9441 42.9418C57.6756 42.9418 58.3184 43.0785 58.8723 43.3519C59.4263 43.6254 59.856 44 60.1614 44.4759C60.4703 44.9517 60.6248 45.495 60.6248 46.1058C60.6248 46.5142 60.5467 46.9155 60.3904 47.3097C60.2342 47.7038 59.959 48.1406 59.5648 48.62C59.1742 49.0994 58.6255 49.68 57.9189 50.3619L56.0385 52.2741V52.3487H60.79V54H53.3113Z" fill="url(#paint1_linear_1633_338)"/>
<defs>
<linearGradient id="paint0_linear_1633_338" x1="31" y1="0" x2="31" y2="62" gradientUnits="userSpaceOnUse">
<stop stop-color="#DF4833"/>
<stop offset="1" stop-color="#79271C"/>
</linearGradient>
<linearGradient id="paint1_linear_1633_338" x1="57" y1="39" x2="57" y2="58" gradientUnits="userSpaceOnUse">
<stop stop-color="#DF4833"/>
<stop offset="1" stop-color="#79271C"/>
</linearGradient>
</defs>
</svg>
