<svg width="172" height="11" viewBox="0 0 172 11" fill="none" xmlns="http://www.w3.org/2000/svg">
<path d="M5.90092 3.27637C5.85452 2.84218 5.65897 2.50411 5.31428 2.26216C4.97289 2.02021 4.52876 1.89924 3.98189 1.89924C3.59742 1.89924 3.26764 1.95724 2.99254 2.07324C2.71745 2.18925 2.50698 2.34668 2.36115 2.54554C2.21532 2.74441 2.14074 2.97144 2.13743 3.22665C2.13743 3.43877 2.18549 3.62272 2.28161 3.7785C2.38104 3.93427 2.51527 4.06685 2.6843 4.17623C2.85334 4.28229 3.0406 4.37177 3.24609 4.44469C3.45159 4.51761 3.65874 4.57892 3.86754 4.62864L4.82209 4.86728C5.20656 4.95676 5.57611 5.07774 5.93075 5.2302C6.28871 5.38266 6.60855 5.5749 6.89027 5.80691C7.17531 6.03891 7.40069 6.31898 7.56641 6.64711C7.73213 6.97523 7.81499 7.3597 7.81499 7.80051C7.81499 8.39711 7.66252 8.92244 7.3576 9.37651C7.05268 9.82727 6.61186 10.1802 6.03516 10.4355C5.46177 10.6874 4.7674 10.8133 3.95206 10.8133C3.15992 10.8133 2.47218 10.6907 1.88885 10.4454C1.30883 10.2001 0.854759 9.84218 0.526634 9.37154C0.201823 8.90089 0.0261601 8.3275 -0.000355095 7.65137H1.81428C1.84079 8.00601 1.95017 8.30099 2.1424 8.53631C2.33464 8.77163 2.58487 8.9473 2.89311 9.0633C3.20466 9.1793 3.55268 9.2373 3.93715 9.2373C4.33819 9.2373 4.68951 9.17765 4.99112 9.05833C5.29605 8.93569 5.53468 8.76666 5.70703 8.55123C5.87938 8.33248 5.96721 8.07727 5.97053 7.7856C5.96721 7.52045 5.88932 7.3017 5.73686 7.12935C5.5844 6.95369 5.37062 6.80785 5.09553 6.69185C4.82375 6.57253 4.50556 6.46647 4.14098 6.37367L2.9826 6.07537C2.14406 5.85994 1.48118 5.53347 0.993963 5.09597C0.510062 4.65516 0.268111 4.07016 0.268111 3.341C0.268111 2.74109 0.430516 2.21576 0.755327 1.765C1.08345 1.31425 1.52924 0.964577 2.09268 0.715997C2.65613 0.464104 3.29415 0.338157 4.00675 0.338157C4.72929 0.338157 5.36233 0.464104 5.9059 0.715997C6.45277 0.964577 6.88198 1.31093 7.19354 1.75506C7.50509 2.19587 7.66584 2.70298 7.67578 3.27637H5.90092ZM10.8198 6.18475V10.6592H9.02003V0.477361H10.78V4.3204H10.8695C11.0484 3.88953 11.3252 3.5498 11.6997 3.30123C12.0776 3.04933 12.5582 2.92338 13.1415 2.92338C13.6718 2.92338 14.1341 3.03442 14.5286 3.25648C14.923 3.47854 15.2279 3.80336 15.4433 4.23091C15.6621 4.65847 15.7715 5.18049 15.7715 5.79696V10.6592H13.9717V6.07537C13.9717 5.56164 13.8392 5.16226 13.574 4.87722C13.3122 4.58887 12.9443 4.44469 12.4703 4.44469C12.1521 4.44469 11.8671 4.51429 11.6152 4.6535C11.3666 4.78939 11.1711 4.98659 11.0286 5.24512C10.8894 5.50364 10.8198 5.81685 10.8198 6.18475ZM20.5772 10.8083C19.8314 10.8083 19.1851 10.6443 18.6383 10.3161C18.0914 9.98801 17.6671 9.52897 17.3655 8.93901C17.0672 8.34905 16.9181 7.65965 16.9181 6.87083C16.9181 6.082 17.0672 5.39095 17.3655 4.79767C17.6671 4.2044 18.0914 3.7437 18.6383 3.41557C19.1851 3.08745 19.8314 2.92338 20.5772 2.92338C21.3229 2.92338 21.9692 3.08745 22.5161 3.41557C23.063 3.7437 23.4856 4.2044 23.7839 4.79767C24.0855 5.39095 24.2363 6.082 24.2363 6.87083C24.2363 7.65965 24.0855 8.34905 23.7839 8.93901C23.4856 9.52897 23.063 9.98801 22.5161 10.3161C21.9692 10.6443 21.3229 10.8083 20.5772 10.8083ZM20.5871 9.36657C20.9915 9.36657 21.3295 9.25553 21.6013 9.03347C21.8731 8.80809 22.0753 8.50648 22.2079 8.12864C22.3438 7.7508 22.4117 7.32987 22.4117 6.86586C22.4117 6.39853 22.3438 5.97594 22.2079 5.5981C22.0753 5.21694 21.8731 4.91368 21.6013 4.6883C21.3295 4.46292 20.9915 4.35023 20.5871 4.35023C20.1728 4.35023 19.8281 4.46292 19.553 4.6883C19.2813 4.91368 19.0774 5.21694 18.9415 5.5981C18.8089 5.97594 18.7427 6.39853 18.7427 6.86586C18.7427 7.32987 18.8089 7.7508 18.9415 8.12864C19.0774 8.50648 19.2813 8.80809 19.553 9.03347C19.8281 9.25553 20.1728 9.36657 20.5871 9.36657ZM26.7613 10.6592L24.6036 3.02282H26.4381L27.7805 8.39213H27.8501L29.2222 3.02282H31.0368L32.409 8.3623H32.4836L33.806 3.02282H35.6455L33.4829 10.6592H31.6086L30.1768 5.49867H30.0724L28.6405 10.6592H26.7613ZM43.5231 3.02282V4.41486H39.0089V3.02282H43.5231ZM40.1375 10.6592V2.30193C40.1375 1.7882 40.2435 1.36065 40.4556 1.01926C40.6711 0.677882 40.9594 0.422674 41.3207 0.253639C41.682 0.0846052 42.083 8.80957e-05 42.5238 8.80957e-05C42.8354 8.80957e-05 43.1121 0.0249463 43.3541 0.0746626C43.596 0.124378 43.775 0.169123 43.891 0.208895L43.5331 1.60094C43.4568 1.57774 43.3607 1.55454 43.2447 1.53134C43.1287 1.50482 42.9994 1.49157 42.8569 1.49157C42.5222 1.49157 42.2852 1.57277 42.146 1.73517C42.0101 1.89426 41.9421 2.12296 41.9421 2.42125V10.6592H40.1375ZM47.6664 10.8083C46.9007 10.8083 46.2395 10.6492 45.6827 10.3311C45.1292 10.0096 44.7033 9.55549 44.405 8.96884C44.1067 8.37888 43.9576 7.68451 43.9576 6.88574C43.9576 6.10023 44.1067 5.41084 44.405 4.81756C44.7066 4.22097 45.1275 3.75695 45.6678 3.42551C46.208 3.09076 46.8427 2.92338 47.5719 2.92338C48.0426 2.92338 48.4867 2.99962 48.9043 3.15208C49.3252 3.30122 49.6964 3.53323 50.0179 3.8481C50.3427 4.16297 50.598 4.56401 50.7836 5.05123C50.9692 5.53513 51.062 6.11183 51.062 6.78134V7.33319H44.8027V6.12012H49.3368C49.3335 5.77542 49.2589 5.46884 49.1131 5.20037C48.9673 4.92859 48.7634 4.71481 48.5016 4.55904C48.2431 4.40326 47.9415 4.32537 47.5968 4.32537C47.2289 4.32537 46.9057 4.41486 46.6273 4.59384C46.3489 4.7695 46.1318 5.00151 45.976 5.28986C45.8236 5.5749 45.7457 5.88811 45.7424 6.22949V7.28844C45.7424 7.73257 45.8236 8.11373 45.986 8.43191C46.1484 8.74677 46.3754 8.98873 46.6671 9.15776C46.9587 9.32348 47.3001 9.40634 47.6912 9.40634C47.9531 9.40634 48.19 9.36988 48.4022 9.29696C48.6143 9.22073 48.7982 9.1097 48.954 8.96387C49.1098 8.81803 49.2275 8.6374 49.307 8.42196L50.9874 8.61088C50.8813 9.05501 50.6792 9.4428 50.3809 9.77424C50.0859 10.1024 49.708 10.3576 49.2473 10.5399C48.7866 10.7188 48.2596 10.8083 47.6664 10.8083ZM54.4222 10.8133C53.9383 10.8133 53.5025 10.7271 53.1147 10.5548C52.7302 10.3791 52.4253 10.1206 52.1999 9.77921C51.9778 9.43783 51.8668 9.0169 51.8668 8.51642C51.8668 8.08555 51.9463 7.72926 52.1054 7.44753C52.2645 7.16581 52.4816 6.94043 52.7567 6.7714C53.0318 6.60236 53.3417 6.47476 53.6864 6.38858C54.0344 6.29909 54.394 6.23446 54.7652 6.19469C55.2127 6.14829 55.5756 6.10686 55.854 6.0704C56.1324 6.03063 56.3346 5.97097 56.4606 5.89142C56.5898 5.80856 56.6544 5.68096 56.6544 5.50861V5.47878C56.6544 5.10426 56.5434 4.81425 56.3213 4.60875C56.0993 4.40326 55.7794 4.30051 55.3618 4.30051C54.921 4.30051 54.5713 4.39663 54.3128 4.58887C54.0576 4.7811 53.8853 5.00814 53.7958 5.26998L52.1154 5.03134C52.248 4.56732 52.4667 4.17954 52.7716 3.86799C53.0766 3.55312 53.4494 3.3178 53.8902 3.16202C54.3311 3.00293 54.8183 2.92338 55.3519 2.92338C55.7198 2.92338 56.086 2.96647 56.4506 3.05265C56.8152 3.13882 57.1483 3.28134 57.4499 3.4802C57.7515 3.67575 57.9935 3.94256 58.1758 4.28063C58.3614 4.6187 58.4542 5.04128 58.4542 5.54838V10.6592H56.724V9.61017H56.6644C56.555 9.8223 56.4009 10.0212 56.202 10.2068C56.0065 10.3891 55.7596 10.5365 55.4613 10.6492C55.1663 10.7586 54.8199 10.8133 54.4222 10.8133ZM54.8895 9.49086C55.2508 9.49086 55.564 9.4196 55.8292 9.27708C56.0943 9.13124 56.2981 8.93901 56.4407 8.70037C56.5865 8.46174 56.6594 8.20156 56.6594 7.91983V7.01998C56.6031 7.06638 56.507 7.10946 56.3711 7.14924C56.2385 7.18901 56.0893 7.22381 55.9236 7.25364C55.7579 7.28347 55.5938 7.30998 55.4314 7.33319C55.269 7.35639 55.1282 7.37627 55.0088 7.39284C54.7404 7.4293 54.5001 7.48896 54.288 7.57182C54.0758 7.65468 53.9085 7.77069 53.7858 7.91983C53.6632 8.06567 53.6019 8.25459 53.6019 8.48659C53.6019 8.81803 53.7229 9.06827 53.9648 9.2373C54.2068 9.40634 54.515 9.49086 54.8895 9.49086ZM63.7173 3.02282V4.41486H59.3274V3.02282H63.7173ZM60.4112 1.19327H62.2109V8.3623C62.2109 8.60426 62.2473 8.78986 62.3203 8.91912C62.3965 9.04507 62.4959 9.13124 62.6186 9.17765C62.7412 9.22405 62.8771 9.24725 63.0262 9.24725C63.1389 9.24725 63.2417 9.23896 63.3345 9.22239C63.4306 9.20582 63.5035 9.1909 63.5532 9.17765L63.8565 10.5846C63.7604 10.6177 63.6228 10.6542 63.4438 10.694C63.2682 10.7338 63.0527 10.757 62.7975 10.7636C62.3468 10.7768 61.9408 10.7089 61.5795 10.5597C61.2182 10.4073 60.9315 10.172 60.7194 9.85378C60.5106 9.5356 60.4079 9.13787 60.4112 8.6606V1.19327ZM69.7298 7.44753V3.02282H71.5296V10.6592H69.7845V9.30194H69.705C69.5326 9.72949 69.2493 10.0792 68.8548 10.3509C68.4637 10.6227 67.9815 10.7586 67.4081 10.7586C66.9076 10.7586 66.4652 10.6476 66.0807 10.4255C65.6995 10.2001 65.4012 9.87367 65.1858 9.44611C64.9704 9.01524 64.8627 8.49488 64.8627 7.88503V3.02282H66.6624V7.60662C66.6624 8.09052 66.795 8.47499 67.0601 8.76003C67.3253 9.04507 67.6733 9.18759 68.1041 9.18759C68.3693 9.18759 68.6262 9.12296 68.8747 8.9937C69.1233 8.86444 69.3271 8.6722 69.4862 8.41699C69.6486 8.15847 69.7298 7.83532 69.7298 7.44753ZM73.0205 10.6592V3.02282H74.7655V4.29554H74.8451C74.9843 3.85473 75.2229 3.515 75.561 3.27637C75.9023 3.03442 76.2918 2.91344 76.7293 2.91344C76.8287 2.91344 76.9398 2.91841 77.0624 2.92836C77.1883 2.93498 77.2927 2.94658 77.3756 2.96316V4.6187C77.2994 4.59218 77.1784 4.56898 77.0127 4.54909C76.8503 4.52589 76.6928 4.51429 76.5404 4.51429C76.2122 4.51429 75.9173 4.58555 75.6554 4.72807C75.3969 4.86728 75.1931 5.06117 75.0439 5.30975C74.8948 5.55833 74.8202 5.84502 74.8202 6.16983V10.6592H73.0205ZM81.2777 10.8083C80.5121 10.8083 79.8509 10.6492 79.2941 10.3311C78.7406 10.0096 78.3147 9.55549 78.0164 8.96884C77.7181 8.37888 77.5689 7.68451 77.5689 6.88574C77.5689 6.10023 77.7181 5.41084 78.0164 4.81756C78.318 4.22097 78.7389 3.75695 79.2792 3.42551C79.8194 3.09076 80.4541 2.92338 81.1833 2.92338C81.6539 2.92338 82.098 2.99962 82.5157 3.15208C82.9366 3.30122 83.3078 3.53323 83.6293 3.8481C83.9541 4.16297 84.2093 4.56401 84.3949 5.05123C84.5805 5.53513 84.6733 6.11183 84.6733 6.78134V7.33319H78.4141V6.12012H82.9482C82.9449 5.77542 82.8703 5.46884 82.7245 5.20037C82.5786 4.92859 82.3748 4.71481 82.113 4.55904C81.8544 4.40326 81.5528 4.32537 81.2081 4.32537C80.8402 4.32537 80.5171 4.41486 80.2387 4.59384C79.9603 4.7695 79.7432 5.00151 79.5874 5.28986C79.4349 5.5749 79.357 5.88811 79.3537 6.22949V7.28844C79.3537 7.73257 79.4349 8.11373 79.5973 8.43191C79.7597 8.74677 79.9868 8.98873 80.2784 9.15776C80.5701 9.32348 80.9115 9.40634 81.3026 9.40634C81.5644 9.40634 81.8014 9.36988 82.0135 9.29696C82.2257 9.22073 82.4096 9.1097 82.5654 8.96387C82.7212 8.81803 82.8388 8.6374 82.9184 8.42196L84.5988 8.61088C84.4927 9.05501 84.2905 9.4428 83.9922 9.77424C83.6972 10.1024 83.3194 10.3576 82.8587 10.5399C82.398 10.7188 81.871 10.8083 81.2777 10.8083ZM89.0286 10.6592V0.477361H90.8283V4.2856H90.9029C90.9957 4.09999 91.1266 3.90279 91.2956 3.69398C91.4646 3.48186 91.6933 3.30122 91.9817 3.15208C92.27 2.99962 92.6379 2.92338 93.0854 2.92338C93.6753 2.92338 94.2073 3.07419 94.6813 3.3758C95.1585 3.67409 95.5364 4.11657 95.8148 4.70321C96.0965 5.28655 96.2374 6.00246 96.2374 6.85094C96.2374 7.68948 96.0998 8.40208 95.8247 8.98873C95.5496 9.57537 95.1751 10.0228 94.7011 10.3311C94.2272 10.6393 93.6903 10.7934 93.0904 10.7934C92.6529 10.7934 92.2899 10.7205 92.0016 10.5747C91.7132 10.4288 91.4812 10.2532 91.3055 10.0477C91.1332 9.83887 90.999 9.64166 90.9029 9.45605H90.7984V10.6592H89.0286ZM90.7935 6.841C90.7935 7.33484 90.8631 7.76737 91.0023 8.13858C91.1448 8.5098 91.3486 8.7998 91.6138 9.00861C91.8823 9.2141 92.2071 9.31685 92.5882 9.31685C92.9859 9.31685 93.319 9.21079 93.5875 8.99867C93.856 8.78323 94.0582 8.48991 94.194 8.1187C94.3332 7.74417 94.4029 7.31827 94.4029 6.841C94.4029 6.36704 94.3349 5.94611 94.199 5.57821C94.0631 5.21032 93.8609 4.92196 93.5925 4.71316C93.324 4.50435 92.9893 4.39995 92.5882 4.39995C92.2038 4.39995 91.8773 4.50104 91.6088 4.70321C91.3404 4.90539 91.1365 5.18877 90.9973 5.55336C90.8614 5.91794 90.7935 6.34715 90.7935 6.841ZM97.4076 10.6592V3.02282H99.1526V4.29554H99.2322C99.3714 3.85473 99.61 3.515 99.9481 3.27637C100.289 3.03442 100.679 2.91344 101.116 2.91344C101.216 2.91344 101.327 2.91841 101.45 2.92836C101.575 2.93498 101.68 2.94658 101.763 2.96316V4.6187C101.686 4.59218 101.566 4.56898 101.4 4.54909C101.237 4.52589 101.08 4.51429 100.927 4.51429C100.599 4.51429 100.304 4.58555 100.043 4.72807C99.784 4.86728 99.5802 5.06117 99.431 5.30975C99.2819 5.55833 99.2073 5.84502 99.2073 6.16983V10.6592H97.4076ZM105.665 10.8083C104.899 10.8083 104.238 10.6492 103.681 10.3311C103.128 10.0096 102.702 9.55549 102.404 8.96884C102.105 8.37888 101.956 7.68451 101.956 6.88574C101.956 6.10023 102.105 5.41084 102.404 4.81756C102.705 4.22097 103.126 3.75695 103.666 3.42551C104.207 3.09076 104.841 2.92338 105.57 2.92338C106.041 2.92338 106.485 2.99962 106.903 3.15208C107.324 3.30122 107.695 3.53323 108.016 3.8481C108.341 4.16297 108.596 4.56401 108.782 5.05123C108.968 5.53513 109.06 6.11183 109.06 6.78134V7.33319H102.801V6.12012H107.335C107.332 5.77542 107.257 5.46884 107.112 5.20037C106.966 4.92859 106.762 4.71481 106.5 4.55904C106.242 4.40326 105.94 4.32537 105.595 4.32537C105.227 4.32537 104.904 4.41486 104.626 4.59384C104.347 4.7695 104.13 5.00151 103.975 5.28986C103.822 5.5749 103.744 5.88811 103.741 6.22949V7.28844C103.741 7.73257 103.822 8.11373 103.984 8.43191C104.147 8.74677 104.374 8.98873 104.666 9.15776C104.957 9.32348 105.299 9.40634 105.69 9.40634C105.952 9.40634 106.189 9.36988 106.401 9.29696C106.613 9.22073 106.797 9.1097 106.953 8.96387C107.108 8.81803 107.226 8.6374 107.305 8.42196L108.986 8.61088C108.88 9.05501 108.678 9.4428 108.379 9.77424C108.084 10.1024 107.707 10.3576 107.246 10.5399C106.785 10.7188 106.258 10.8083 105.665 10.8083ZM112.421 10.8133C111.937 10.8133 111.501 10.7271 111.113 10.5548C110.729 10.3791 110.424 10.1206 110.198 9.77921C109.976 9.43783 109.865 9.0169 109.865 8.51642C109.865 8.08555 109.945 7.72926 110.104 7.44753C110.263 7.16581 110.48 6.94043 110.755 6.7714C111.03 6.60236 111.34 6.47476 111.685 6.38858C112.033 6.29909 112.393 6.23446 112.764 6.19469C113.211 6.14829 113.574 6.10686 113.853 6.0704C114.131 6.03063 114.333 5.97097 114.459 5.89142C114.588 5.80856 114.653 5.68096 114.653 5.50861V5.47878C114.653 5.10426 114.542 4.81425 114.32 4.60875C114.098 4.40326 113.778 4.30051 113.36 4.30051C112.92 4.30051 112.57 4.39663 112.311 4.58887C112.056 4.7811 111.884 5.00814 111.794 5.26998L110.114 5.03134C110.246 4.56732 110.465 4.17954 110.77 3.86799C111.075 3.55312 111.448 3.3178 111.889 3.16202C112.33 3.00293 112.817 2.92338 113.35 2.92338C113.718 2.92338 114.085 2.96647 114.449 3.05265C114.814 3.13882 115.147 3.28134 115.448 3.4802C115.75 3.67575 115.992 3.94256 116.174 4.28063C116.36 4.6187 116.453 5.04128 116.453 5.54838V10.6592H114.723V9.61017H114.663C114.554 9.8223 114.399 10.0212 114.201 10.2068C114.005 10.3891 113.758 10.5365 113.46 10.6492C113.165 10.7586 112.818 10.8133 112.421 10.8133ZM112.888 9.49086C113.249 9.49086 113.563 9.4196 113.828 9.27708C114.093 9.13124 114.297 8.93901 114.439 8.70037C114.585 8.46174 114.658 8.20156 114.658 7.91983V7.01998C114.602 7.06638 114.505 7.10946 114.37 7.14924C114.237 7.18901 114.088 7.22381 113.922 7.25364C113.756 7.28347 113.592 7.30998 113.43 7.33319C113.268 7.35639 113.127 7.37627 113.007 7.39284C112.739 7.4293 112.499 7.48896 112.286 7.57182C112.074 7.65468 111.907 7.77069 111.784 7.91983C111.662 8.06567 111.6 8.25459 111.6 8.48659C111.6 8.81803 111.721 9.06827 111.963 9.2373C112.205 9.40634 112.514 9.49086 112.888 9.49086ZM119.543 8.26287L119.538 6.09029H119.827L122.571 3.02282H124.674L121.298 6.78134H120.925L119.543 8.26287ZM117.903 10.6592V0.477361H119.702V10.6592H117.903ZM122.695 10.6592L120.209 7.18404L121.422 5.91628L124.848 10.6592H122.695ZM128.033 10.7934C127.433 10.7934 126.896 10.6393 126.422 10.3311C125.948 10.0228 125.574 9.57537 125.298 8.98873C125.023 8.40208 124.886 7.68948 124.886 6.85094C124.886 6.00246 125.025 5.28655 125.303 4.70321C125.585 4.11657 125.965 3.67409 126.442 3.3758C126.919 3.07419 127.451 2.92338 128.038 2.92338C128.485 2.92338 128.853 2.99962 129.142 3.15208C129.43 3.30122 129.659 3.48186 129.828 3.69398C129.997 3.90279 130.128 4.09999 130.22 4.2856H130.295V0.477361H132.1V10.6592H130.33V9.45605H130.22C130.128 9.64166 129.993 9.83887 129.818 10.0477C129.642 10.2532 129.41 10.4288 129.122 10.5747C128.833 10.7205 128.47 10.7934 128.033 10.7934ZM128.535 9.31685C128.916 9.31685 129.241 9.2141 129.509 9.00861C129.778 8.7998 129.982 8.5098 130.121 8.13858C130.26 7.76737 130.33 7.33484 130.33 6.841C130.33 6.34715 130.26 5.91794 130.121 5.55336C129.985 5.18877 129.783 4.90539 129.514 4.70321C129.249 4.50104 128.923 4.39995 128.535 4.39995C128.134 4.39995 127.799 4.50435 127.531 4.71316C127.262 4.92196 127.06 5.21032 126.924 5.57821C126.788 5.94611 126.72 6.36704 126.72 6.841C126.72 7.31827 126.788 7.74417 126.924 8.1187C127.063 8.48991 127.267 8.78323 127.536 8.99867C127.807 9.21079 128.141 9.31685 128.535 9.31685ZM136.989 10.8083C136.243 10.8083 135.597 10.6443 135.05 10.3161C134.503 9.98801 134.079 9.52897 133.777 8.93901C133.479 8.34905 133.33 7.65965 133.33 6.87083C133.33 6.082 133.479 5.39095 133.777 4.79767C134.079 4.2044 134.503 3.7437 135.05 3.41557C135.597 3.08745 136.243 2.92338 136.989 2.92338C137.734 2.92338 138.381 3.08745 138.928 3.41557C139.474 3.7437 139.897 4.2044 140.195 4.79767C140.497 5.39095 140.648 6.082 140.648 6.87083C140.648 7.65965 140.497 8.34905 140.195 8.93901C139.897 9.52897 139.474 9.98801 138.928 10.3161C138.381 10.6443 137.734 10.8083 136.989 10.8083ZM136.999 9.36657C137.403 9.36657 137.741 9.25553 138.013 9.03347C138.285 8.80809 138.487 8.50648 138.619 8.12864C138.755 7.7508 138.823 7.32987 138.823 6.86586C138.823 6.39853 138.755 5.97594 138.619 5.5981C138.487 5.21694 138.285 4.91368 138.013 4.6883C137.741 4.46292 137.403 4.35023 136.999 4.35023C136.584 4.35023 136.24 4.46292 135.964 4.6883C135.693 4.91368 135.489 5.21694 135.353 5.5981C135.22 5.97594 135.154 6.39853 135.154 6.86586C135.154 7.32987 135.22 7.7508 135.353 8.12864C135.489 8.50648 135.693 8.80809 135.964 9.03347C136.24 9.25553 136.584 9.36657 136.999 9.36657ZM143.173 10.6592L141.015 3.02282H142.85L144.192 8.39213H144.261L145.634 3.02282H147.448L148.82 8.3623H148.895L150.217 3.02282H152.057L149.894 10.6592H148.02L146.588 5.49867H146.484L145.052 10.6592H143.173ZM154.753 6.18475V10.6592H152.954V3.02282H154.674V4.3204H154.763C154.939 3.89284 155.219 3.55312 155.604 3.30123C155.991 3.04933 156.47 2.92338 157.04 2.92338C157.567 2.92338 158.026 3.03607 158.418 3.26145C158.812 3.48683 159.117 3.8133 159.332 4.24086C159.551 4.66841 159.659 5.18712 159.655 5.79696V10.6592H157.856V6.07537C157.856 5.56496 157.723 5.16557 157.458 4.87722C157.196 4.58887 156.833 4.44469 156.369 4.44469C156.054 4.44469 155.774 4.51429 155.529 4.6535C155.287 4.78939 155.097 4.98659 154.957 5.24512C154.821 5.50364 154.753 5.81685 154.753 6.18475ZM171.422 7.33319L164.621 10.4752V8.71032L169.453 6.63716L169.399 6.73162V6.50293L169.453 6.59739L164.621 4.52424V2.75932L171.422 5.90137V7.33319Z" fill="url(#paint0_linear_822_120)"/>
<defs>
<linearGradient id="paint0_linear_822_120" x1="-0.636719" y1="5.15918" x2="174.363" y2="5.15918" gradientUnits="userSpaceOnUse">
<stop stop-color="#DF4833"/>
<stop offset="1" stop-color="#79271C"/>
</linearGradient>
</defs>
</svg>
