<svg width="99" height="18" viewBox="0 0 99 18" fill="none" xmlns="http://www.w3.org/2000/svg">
<path d="M44.6881 15.75L45.9068 10.4813L41.8193 6.9375L47.2193 6.46875L49.3193 1.5L51.4193 6.46875L56.8193 6.9375L52.7318 10.4813L53.9506 15.75L49.3193 12.9562L44.6881 15.75Z" fill="#FFCC00"/>
<path d="M64.8482 15.75L66.067 10.4813L61.9795 6.9375L67.3795 6.46875L69.4795 1.5L71.5795 6.46875L76.9795 6.9375L72.892 10.4813L74.1107 15.75L69.4795 12.9562L64.8482 15.75Z" fill="#FFCC00"/>
<path d="M4.36875 15.75L5.5875 10.4813L1.5 6.9375L6.9 6.46875L9 1.5L11.1 6.46875L16.5 6.9375L12.4125 10.4813L13.6312 15.75L9 12.9562L4.36875 15.75Z" fill="#FFCC00"/>
<path d="M24.5289 15.75L25.7477 10.4813L21.6602 6.9375L27.0602 6.46875L29.1602 1.5L31.2602 6.46875L36.6602 6.9375L32.5727 10.4813L33.7914 15.75L29.1602 12.9562L24.5289 15.75Z" fill="#FFCC00"/>
<path d="M85.0084 15.75L86.2271 10.4813L82.1396 6.9375L87.5396 6.46875L89.6396 1.5L91.7396 6.46875L97.1396 6.9375L93.0521 10.4813L94.2709 15.75L89.6396 12.9562L85.0084 15.75Z" fill="#FFCC00"/>
</svg>
