<svg width="35" height="35" viewBox="0 0 35 35" fill="none" xmlns="http://www.w3.org/2000/svg">
<path d="M20.5042 13.1542L21.8458 14.4958L8.63333 27.7083H7.29167V26.3667L20.5042 13.1542ZM25.7542 4.375C25.3896 4.375 25.0104 4.52083 24.7333 4.79792L22.0646 7.46667L27.5333 12.9354L30.2021 10.2667C30.3373 10.1318 30.4445 9.9715 30.5177 9.79508C30.5909 9.61866 30.6286 9.42954 30.6286 9.23854C30.6286 9.04755 30.5909 8.85843 30.5177 8.68201C30.4445 8.50559 30.3373 8.34533 30.2021 8.21042L26.7896 4.79792C26.4979 4.50625 26.1333 4.375 25.7542 4.375ZM20.5042 9.02708L4.375 25.1562V30.625H9.84375L25.9729 14.4958L20.5042 9.02708Z" fill="url(#paint0_linear_906_623)"/>
<defs>
<linearGradient id="paint0_linear_906_623" x1="17.5018" y1="4.375" x2="17.5018" y2="30.625" gradientUnits="userSpaceOnUse">
<stop stop-color="#DF4833"/>
<stop offset="1" stop-color="#79271C"/>
</linearGradient>
</defs>
</svg>
