<svg width="35" height="35" viewBox="0 0 35 35" fill="none" xmlns="http://www.w3.org/2000/svg">
<path d="M4.375 21.875V24.0625H9.39094L2.1875 31.2659L3.73406 32.8125L10.9375 25.6091V30.625H13.125V21.875H4.375ZM26.25 22.9688H28.4375V28.4375H26.25V22.9688ZM21.875 17.5H24.0625V28.4375H21.875V17.5ZM17.5 19.6875H19.6875V28.4375H17.5V19.6875Z" fill="url(#paint0_linear_906_616)"/>
<path d="M30.625 2.1875H4.375C3.79484 2.1875 3.23844 2.41797 2.8282 2.8282C2.41797 3.23844 2.1875 3.79484 2.1875 4.375V17.5H4.375V14.2188H30.6261L30.6272 30.625H17.5V32.8125H30.625C31.2049 32.8116 31.7608 32.5809 32.1708 32.1708C32.5809 31.7608 32.8116 31.2049 32.8125 30.625V4.375C32.8125 3.79484 32.582 3.23844 32.1718 2.8282C31.7616 2.41797 31.2052 2.1875 30.625 2.1875ZM13.125 12.0312H4.375V4.375H13.125V12.0312ZM15.3125 12.0312V4.375H30.625V12.0312H15.3125Z" fill="url(#paint1_linear_906_616)"/>
<defs>
<linearGradient id="paint0_linear_906_616" x1="15.3125" y1="17.5" x2="15.3125" y2="32.8125" gradientUnits="userSpaceOnUse">
<stop stop-color="#DF4833"/>
<stop offset="1" stop-color="#79271C"/>
</linearGradient>
<linearGradient id="paint1_linear_906_616" x1="17.5" y1="2.1875" x2="17.5" y2="32.8125" gradientUnits="userSpaceOnUse">
<stop stop-color="#DF4833"/>
<stop offset="1" stop-color="#79271C"/>
</linearGradient>
</defs>
</svg>
