<svg width="35" height="35" viewBox="0 0 35 35" fill="none" xmlns="http://www.w3.org/2000/svg">
<path d="M26.25 19.6875H30.625C31.2052 19.6875 31.7616 19.457 32.1718 19.0468C32.582 18.6366 32.8125 18.0802 32.8125 17.5V13.125C32.8125 12.5448 32.582 11.9884 32.1718 11.5782C31.7616 11.168 31.2052 10.9375 30.625 10.9375H26.25C25.6698 10.9375 25.1134 11.168 24.7032 11.5782C24.293 11.9884 24.0625 12.5448 24.0625 13.125V14.2188H18.5938V8.75C18.5938 6.94094 17.1216 5.46875 15.3125 5.46875H10.9375V4.375C10.9375 3.79484 10.707 3.23844 10.2968 2.8282C9.88656 2.41797 9.33016 2.1875 8.75 2.1875H4.375C3.79484 2.1875 3.23844 2.41797 2.8282 2.8282C2.41797 3.23844 2.1875 3.79484 2.1875 4.375V8.75C2.1875 9.33016 2.41797 9.88656 2.8282 10.2968C3.23844 10.707 3.79484 10.9375 4.375 10.9375H8.75C9.33016 10.9375 9.88656 10.707 10.2968 10.2968C10.707 9.88656 10.9375 9.33016 10.9375 8.75V7.65625H15.3125C15.9163 7.65625 16.4062 8.14734 16.4062 8.75V26.25C16.4062 28.0591 17.8784 29.5312 19.6875 29.5312H24.0625V30.625C24.0625 31.2052 24.293 31.7616 24.7032 32.1718C25.1134 32.582 25.6698 32.8125 26.25 32.8125H30.625C31.2052 32.8125 31.7616 32.582 32.1718 32.1718C32.582 31.7616 32.8125 31.2052 32.8125 30.625V26.25C32.8125 25.6698 32.582 25.1134 32.1718 24.7032C31.7616 24.293 31.2052 24.0625 30.625 24.0625H26.25C25.6698 24.0625 25.1134 24.293 24.7032 24.7032C24.293 25.1134 24.0625 25.6698 24.0625 26.25V27.3438H19.6875C19.0848 27.3438 18.5938 26.8527 18.5938 26.25V16.4062H24.0625V17.5C24.0625 18.0802 24.293 18.6366 24.7032 19.0468C25.1134 19.457 25.6698 19.6875 26.25 19.6875ZM26.25 13.125H30.625V17.5H26.25V13.125Z" fill="url(#paint0_linear_906_296)"/>
<defs>
<linearGradient id="paint0_linear_906_296" x1="17.5" y1="2.1875" x2="17.5" y2="32.8125" gradientUnits="userSpaceOnUse">
<stop stop-color="#DF4833"/>
<stop offset="1" stop-color="#79271C"/>
</linearGradient>
</defs>
</svg>
