<svg width="35" height="35" viewBox="0 0 35 35" fill="none" xmlns="http://www.w3.org/2000/svg">
<path d="M32.8125 4.375V8.75C32.8125 9.95312 31.8281 10.9375 30.625 10.9375H26.25C25.0469 10.9375 24.0625 9.95312 24.0625 8.75V7.65625H21.875L15.0938 21.6562C14.875 22.4219 14 22.9688 13.125 22.9688H10.9375V24.0625C10.9375 25.2656 9.95312 26.25 8.75 26.25H4.375C3.17188 26.25 2.1875 25.2656 2.1875 24.0625V19.6875C2.1875 18.4844 3.17188 17.5 4.375 17.5H8.75C9.95312 17.5 10.9375 18.4844 10.9375 19.6875V20.7812H13.125L19.4688 7.65625H10.9375V8.75C10.9375 9.95312 9.95312 10.9375 8.75 10.9375H4.375C3.17188 10.9375 2.1875 9.95312 2.1875 8.75V4.375C2.1875 3.17188 3.17188 2.1875 4.375 2.1875H8.75C9.95312 2.1875 10.9375 3.17188 10.9375 4.375V5.46875H24.0625V4.375C24.0625 3.17188 25.0469 2.1875 26.25 2.1875H30.625C31.8281 2.1875 32.8125 3.17188 32.8125 4.375ZM8.75 4.375H4.375V8.75H8.75V4.375ZM8.75 19.6875H4.375V24.0625H8.75V19.6875ZM30.625 4.375H26.25V8.75H30.625V4.375ZM24.0625 24.0625C22.8561 24.0625 21.875 25.0447 21.875 26.25C21.875 27.4553 22.8561 28.4375 24.0625 28.4375C25.2689 28.4375 26.25 27.4564 26.25 26.25C26.25 25.0436 25.2689 24.0625 24.0625 24.0625ZM32.5686 25.6802C31.0122 22.038 27.6719 19.6875 24.0625 19.6875C20.4531 19.6875 17.1128 22.0391 15.5564 25.6802L15.3125 26.25L15.5564 26.8209C17.1128 30.4609 20.4531 32.8125 24.0625 32.8125C27.6719 32.8125 31.0122 30.4609 32.5686 26.8209L32.8125 26.25L32.5686 25.6802ZM24.0625 30.625C21.6497 30.625 19.6875 28.6628 19.6875 26.25C19.6875 23.8372 21.6497 21.875 24.0625 21.875C26.4753 21.875 28.4375 23.8372 28.4375 26.25C28.4375 28.6628 26.4753 30.625 24.0625 30.625Z" fill="url(#paint0_linear_906_609)"/>
<defs>
<linearGradient id="paint0_linear_906_609" x1="17.5" y1="2.1875" x2="17.5" y2="32.8125" gradientUnits="userSpaceOnUse">
<stop stop-color="#DF4833"/>
<stop offset="1" stop-color="#79271C"/>
</linearGradient>
</defs>
</svg>
